<svg width="58" height="45" viewBox="0 0 58 45" fill="none" xmlns="http://www.w3.org/2000/svg">
<g clip-path="url(#clip0_2_1837)">
<path fill-rule="evenodd" clip-rule="evenodd" d="M9.75 1.75H48.25C52.7985 1.75 56.5 5.4515 56.5 10V34.75C56.5 39.2985 52.7985 43 48.25 43H9.75C5.2015 43 1.5 39.2985 1.5 34.75V10C1.5 5.4515 5.2015 1.75 9.75 1.75ZM9.75 7.25H48.25C49.768 7.25 51 8.48475 51 10V12.75H7V10C7 8.48475 8.232 7.25 9.75 7.25ZM48.25 37.5C49.768 37.5 51 36.2653 51 34.75V18.25H7V34.75C7 36.2653 8.232 37.5 9.75 37.5H48.25ZM15.25 23.75C13.7292 23.75 12.5 24.982 12.5 26.5C12.5 28.018 13.7292 29.25 15.25 29.25H20.75C22.2708 29.25 23.5 28.018 23.5 26.5C23.5 24.982 22.2708 23.75 20.75 23.75H15.25Z" fill="black"/>
</g>
<defs>
<clipPath id="clip0_2_1837">
<rect width="58" height="45" fill="white"/>
</clipPath>
</defs>
</svg>
