<svg width="18" height="18" viewBox="0 0 18 18" fill="none" xmlns="http://www.w3.org/2000/svg">
<path fill-rule="evenodd" clip-rule="evenodd" d="M16.5 9.75V3.75C16.5 2.5095 15.4905 1.5 14.25 1.5H8.25C7.0095 1.5 6 2.5095 6 3.75C6 4.16475 6.33525 4.5 6.75 4.5C7.16475 4.5 7.5 4.16475 7.5 3.75C7.5 3.336 7.836 3 8.25 3H14.25C14.664 3 15 3.336 15 3.75V9.75C15 10.164 14.664 10.5 14.25 10.5C13.8352 10.5 13.5 10.8352 13.5 11.25C13.5 11.6648 13.8352 12 14.25 12C15.4905 12 16.5 10.9905 16.5 9.75ZM3.75 7.5C3.336 7.5 3 7.836 3 8.25V14.25C3 14.664 3.336 15 3.75 15H9.75C10.164 15 10.5 14.664 10.5 14.25V8.25C10.5 7.836 10.164 7.5 9.75 7.5H3.75ZM3.75 16.5H9.75C10.9905 16.5 12 15.4905 12 14.25V8.25C12 7.0095 10.9905 6 9.75 6H3.75C2.5095 6 1.5 7.0095 1.5 8.25V14.25C1.5 15.4905 2.5095 16.5 3.75 16.5Z" fill="#5696F8"/>
</svg>
