<svg width="1216" height="1811" viewBox="0 0 1216 1811" fill="none" xmlns="http://www.w3.org/2000/svg">
<g clip-path="url(#clip0_2_1845)">
<g opacity="0.06">
<path d="M1109.52 1239.22C1097.21 1076.93 1067.53 943.464 1023.5 852.694C992.483 788.81 954.205 746.275 912.863 728.691C908.442 668.816 883.024 612.425 841.092 569.467C856.844 561.293 867.972 549.731 867.972 532.685C867.972 498.539 822.544 485.579 778.084 477.406L768.515 475.739C770.734 471.163 771.892 466.144 771.901 461.058C771.901 438.957 751.741 422.126 712.012 410.887C693.103 405.759 673.812 402.162 654.326 400.132L615.457 20.2191C614.897 14.6758 612.299 9.53799 608.167 5.8021C604.034 2.06621 598.662 -0.00153728 593.092 8.57513e-07V8.57513e-07C587.491 0.0473628 582.109 2.18555 578.002 5.99542C573.894 9.80529 571.358 15.0122 570.889 20.5955L538.632 400.293C519.678 402.262 500.911 405.733 482.506 410.672C442.776 421.911 422.616 438.742 422.616 460.843C422.634 466.987 424.326 473.01 427.508 478.266C384.983 486.493 343.372 499.775 343.372 532.47C343.478 538.395 344.996 544.208 347.801 549.427C350.607 554.646 354.618 559.12 359.5 562.476C328.48 575.328 313.588 637.437 298.212 747.458C258.874 769.589 225.027 800.302 199.185 837.315C146.875 909.856 117.683 1005.47 116.608 1107.15C89.7272 1117.21 74.7816 1151.25 69.1905 1163.72C55.6427 1194 43.4388 1236.16 32.7941 1289.07C11.9886 1393.07 0 1525.68 0 1652.26H44.9442C44.9442 1532.88 55.6965 1407.27 74.9968 1307.57C98.114 1186.85 124.349 1152.32 132.252 1149.31C134.456 1150.01 155.477 1160.07 169.885 1268.42C180.207 1344.89 185.207 1452.06 185.207 1596.07H230.151C230.151 1580.63 230.151 1565.68 230.151 1551.06C229.841 1489.3 241.709 1428.09 265.076 1370.93C288.443 1313.77 322.85 1261.77 366.328 1217.93C409.676 1174.11 461.325 1139.38 518.253 1115.77C575.181 1092.16 636.245 1080.15 697.872 1080.43C823.003 1080.57 942.967 1130.35 1031.45 1218.85C1119.93 1307.36 1169.7 1427.35 1169.84 1552.51H1215.65C1215.69 1439.25 1178.39 1329.13 1109.52 1239.22V1239.22ZM983.075 872.322C1019.26 946.799 1045.22 1053.11 1059.2 1182.49C1051.94 1175.45 1044.52 1168.56 1036.89 1161.95C1026.14 1082.09 1008.67 1008.32 987.107 954.165C960.656 887.755 929.744 854.038 895.176 854.038C836.038 854.038 789.911 921.256 766.149 1040.04C754.465 1038.54 742.691 1037.43 730.828 1036.71C739.268 857.856 804.803 764.505 869.639 764.505C908.401 764.505 949.85 803.814 983.075 872.322ZM985.44 1122.69C932.196 1087.07 872.779 1061.68 810.233 1047.84C831.092 945.669 866.682 898.993 895.176 898.993C902.648 898.993 922.755 913.996 945.334 970.782C963.772 1019.94 977.209 1070.84 985.44 1122.69V1122.69ZM421.433 620.122C418.812 606.686 414.133 593.735 407.563 581.727L460.786 586.298C446.682 603.998 435.019 623.513 426.11 644.32C424.659 635.824 423.153 627.704 421.433 620.122ZM510.354 597.967C529.574 578.399 552.524 562.886 577.844 552.347C603.165 541.808 630.342 536.457 657.767 536.61C708.81 536.69 758.098 555.249 796.522 588.858C834.945 622.467 859.906 668.853 866.79 719.442C844.286 720.034 822.393 726.886 803.567 739.231C800.446 699.882 782.628 663.151 753.659 636.347C724.689 609.543 686.693 594.631 647.23 594.579C608.825 594.232 571.687 608.308 543.158 634.027C514.628 659.745 496.783 695.234 493.15 733.477C479.579 728.758 465.644 725.161 451.485 722.722C456.516 675.744 477.26 631.841 510.354 598.128V597.967ZM606.048 464.069C596.855 464.069 587.716 464.069 578.684 464.392L580.942 437.505C586.318 437.505 591.694 437.505 597.608 437.505C603.522 437.505 608.36 437.505 613.306 437.505L615.994 463.962L606.048 464.069ZM537.234 750.308C537.026 735.767 539.724 721.331 545.169 707.847C550.613 694.362 558.695 682.101 568.941 671.783C579.187 661.465 591.389 653.297 604.833 647.759C618.277 642.222 632.691 639.425 647.23 639.534C676.907 639.562 705.36 651.367 726.345 672.357C747.33 693.347 759.132 721.807 759.16 751.491V781.443C749.543 794.201 741.137 807.829 734.053 822.15C712.549 864.686 697.98 917.653 690.507 978.095C679.31 919.128 653.423 863.938 615.242 817.633C593.393 791.627 567.042 769.769 537.449 753.104L537.234 750.308ZM796.685 532.739L795.234 531.825L797.707 532.47L796.685 532.739ZM729.538 460.897C724.509 464.161 719.091 466.781 713.409 468.694C696.851 467.188 679.432 466.005 661.422 465.253L658.949 441.054C696.636 446.055 720.667 454.659 729.538 461.058V460.897ZM595.565 264.353L609.167 397.39C605.35 397.39 601.479 397.39 597.608 397.39C593.737 397.39 588.737 397.39 584.329 397.39L595.565 264.353ZM535.568 441.323L533.417 466.274C516.805 467.242 500.838 468.533 485.624 470.092C478.58 468.043 471.864 465.001 465.678 461.058C474.495 454.713 498.258 446.163 535.568 441.323ZM511.644 517.951C520.192 519.457 529.17 520.747 538.525 521.769C528.111 527.388 518.105 533.731 508.58 540.751L414.605 532.524C446.47 524.869 478.937 519.993 511.644 517.951V517.951ZM355.468 647.009C363.64 614.153 370.736 602.914 373.801 599.257C376.274 602.322 381.596 611.679 386.811 638.351C391.166 660.721 394.391 689.221 397.563 719.98C377.957 720.839 358.554 724.33 339.877 730.358C344.985 694.33 350.092 667.927 355.468 647.009ZM407.563 764.666C474.388 764.666 535.998 793.973 580.996 847.102C622.768 896.412 647.606 961.801 653.842 1037.78C638.843 1039.07 623.951 1041.01 609.274 1043.54C597.554 898.348 504.763 822.796 412.939 822.796C359.178 822.796 308.911 852.748 271.87 907.221C238.592 956.101 219.453 1019.88 217.41 1087.85H163.111C171.981 907.274 278.106 764.505 407.294 764.505L407.563 764.666ZM285.149 1087.96H281.547H262.139C264.074 1028.8 280.471 974.169 308.75 932.602C337.028 891.035 374.07 868.073 412.67 868.073C414.874 868.073 417.078 868.073 419.229 868.073C388.796 879.845 362.028 899.476 341.652 924.966C308.32 965.834 289.019 1021.87 285.149 1087.96ZM329.394 1108.71C330.846 984.44 392.241 901.252 483.151 901.252H483.581C489.462 901.195 495.335 901.736 501.107 902.865C536.858 935.506 560.244 988.904 564.599 1053.43C488.125 1073.88 417.521 1112.01 358.479 1164.74C352.726 1144.69 343.695 1123.61 329.394 1108.55V1108.71ZM224.238 1354.46C221.872 1320.15 218.861 1289.93 215.259 1263.04C208.915 1215.78 199.131 1164.05 178.433 1133.07H281.547C303.051 1133.07 314.932 1171.14 320.9 1202.06C279.908 1246.67 247.178 1298.22 224.238 1354.3V1354.46Z" fill="#5696F8"/>
<path d="M717.011 1257.67C638.431 1257.75 563.094 1289.01 507.53 1344.59C451.965 1400.17 420.712 1475.52 420.626 1554.12V1799.98H465.571V1554.12C465.571 1521.09 472.074 1488.39 484.711 1457.88C497.347 1427.36 515.867 1399.64 539.216 1376.28C562.564 1352.93 590.283 1334.4 620.789 1321.77C651.295 1309.13 683.992 1302.62 717.011 1302.62C750.031 1302.62 782.727 1309.13 813.233 1321.77C843.74 1334.4 871.458 1352.93 894.807 1376.28C918.155 1399.64 936.676 1427.36 949.312 1457.88C961.948 1488.39 968.452 1521.09 968.452 1554.12V1811.22H1013.4V1554.12C1013.31 1475.52 982.057 1400.17 926.493 1344.59C870.928 1289.01 795.591 1257.75 717.011 1257.67Z" fill="#5696F8"/>
</g>
</g>
<defs>
<clipPath id="clip0_2_1845">
<rect width="1216" height="1811" fill="white"/>
</clipPath>
</defs>
</svg>
