<svg width="357" height="119" viewBox="0 0 357 119" fill="none" xmlns="http://www.w3.org/2000/svg">
<path d="M99.4879 46.1241H94.2848V42.9366H97.5426C98.2145 42.9366 98.7535 42.8351 99.1598 42.632C99.5817 42.4288 99.8864 42.1476 100.074 41.7882C100.277 41.4132 100.379 40.9913 100.379 40.5226C100.379 40.1163 100.308 39.7257 100.168 39.3507C100.043 38.9757 99.7926 38.6632 99.4176 38.4132C99.0426 38.1632 98.4879 38.0382 97.7535 38.0382C97.1442 38.0382 96.6129 38.1163 96.1598 38.2726C95.7067 38.4288 95.3551 38.671 95.1051 38.9991C94.8551 39.3116 94.7301 39.7179 94.7301 40.2179H86.8082C86.8082 38.5773 87.277 37.1788 88.2145 36.0226C89.152 34.8507 90.4098 33.9601 91.9879 33.3507C93.566 32.7257 95.3082 32.4132 97.2145 32.4132C98.8864 32.4132 100.402 32.5773 101.761 32.9054C103.121 33.2179 104.285 33.6866 105.254 34.3116C106.222 34.9366 106.964 35.7101 107.48 36.632C108.011 37.5382 108.277 38.5929 108.277 39.796C108.277 40.6554 108.074 41.4679 107.668 42.2335C107.261 42.9991 106.675 43.6788 105.91 44.2726C105.144 44.8507 104.214 45.3038 103.121 45.632C102.043 45.9601 100.832 46.1241 99.4879 46.1241ZM94.2848 44.4366H99.4879C100.988 44.4366 102.308 44.5851 103.449 44.882C104.605 45.1632 105.574 45.5851 106.355 46.1476C107.136 46.7101 107.722 47.4054 108.113 48.2335C108.519 49.046 108.722 49.9835 108.722 51.046C108.722 52.2491 108.441 53.3273 107.879 54.2804C107.316 55.2179 106.519 56.0148 105.488 56.671C104.457 57.3273 103.238 57.8273 101.832 58.171C100.425 58.5148 98.8864 58.6866 97.2145 58.6866C95.4489 58.6866 93.7379 58.4054 92.0817 57.8429C90.4254 57.2804 89.066 56.4132 88.0035 55.2413C86.941 54.0695 86.4098 52.5616 86.4098 50.7179H94.3317C94.3317 51.1398 94.4489 51.5304 94.6832 51.8898C94.9176 52.2491 95.2848 52.5382 95.7848 52.757C96.3004 52.9601 96.9645 53.0616 97.777 53.0616C98.5739 53.0616 99.191 52.9288 99.6285 52.6632C100.082 52.3976 100.394 52.0538 100.566 51.632C100.754 51.2101 100.847 50.7804 100.847 50.3429C100.847 49.671 100.722 49.132 100.472 48.7257C100.222 48.3195 99.8473 48.0226 99.3473 47.8351C98.8629 47.632 98.2614 47.5304 97.5426 47.5304H94.2848V44.4366Z" fill="#5696F8"/>
<path d="M120.043 37.7335V67.9679H112.144V32.8585H119.504L120.043 37.7335ZM135.605 45.2335V45.7257C135.605 47.5695 135.394 49.2804 134.972 50.8585C134.55 52.4366 133.925 53.8116 133.097 54.9835C132.269 56.1554 131.238 57.0695 130.004 57.7257C128.785 58.3663 127.371 58.6866 125.761 58.6866C124.246 58.6866 122.941 58.3507 121.847 57.6788C120.754 57.007 119.839 56.0773 119.105 54.8898C118.371 53.7023 117.777 52.3429 117.324 50.8116C116.871 49.2804 116.511 47.6632 116.246 45.9601V45.3273C116.511 43.4991 116.871 41.8038 117.324 40.2413C117.777 38.6632 118.371 37.2882 119.105 36.1163C119.839 34.9445 120.746 34.0304 121.824 33.3741C122.918 32.7179 124.222 32.3898 125.738 32.3898C127.347 32.3898 128.761 32.6945 129.98 33.3038C131.214 33.9132 132.246 34.7882 133.074 35.9288C133.918 37.0538 134.55 38.4054 134.972 39.9835C135.394 41.5616 135.605 43.3116 135.605 45.2335ZM127.707 45.7257V45.2335C127.707 44.2491 127.636 43.3507 127.496 42.5382C127.355 41.7101 127.129 40.9913 126.816 40.382C126.519 39.7726 126.121 39.3038 125.621 38.9757C125.121 38.6476 124.504 38.4835 123.769 38.4835C122.925 38.4835 122.214 38.6163 121.636 38.882C121.074 39.132 120.621 39.5226 120.277 40.0538C119.949 40.5695 119.714 41.2179 119.574 41.9991C119.449 42.7648 119.394 43.6632 119.41 44.6945V46.6163C119.379 47.8038 119.496 48.8507 119.761 49.757C120.027 50.6476 120.488 51.3429 121.144 51.8429C121.8 52.3429 122.691 52.5929 123.816 52.5929C124.566 52.5929 125.191 52.421 125.691 52.0773C126.191 51.7179 126.589 51.2257 126.886 50.6007C127.183 49.9601 127.394 49.2257 127.519 48.3976C127.644 47.5695 127.707 46.6788 127.707 45.7257Z" fill="#5696F8"/>
<path d="M138.136 45.796V45.3038C138.136 43.4445 138.402 41.7335 138.933 40.171C139.464 38.5929 140.246 37.2257 141.277 36.0695C142.308 34.9132 143.582 34.0148 145.097 33.3741C146.613 32.7179 148.363 32.3898 150.347 32.3898C152.347 32.3898 154.105 32.7179 155.621 33.3741C157.152 34.0148 158.433 34.9132 159.464 36.0695C160.496 37.2257 161.277 38.5929 161.808 40.171C162.339 41.7335 162.605 43.4445 162.605 45.3038V45.796C162.605 47.6398 162.339 49.3507 161.808 50.9288C161.277 52.4913 160.496 53.8585 159.464 55.0304C158.433 56.1866 157.16 57.0851 155.644 57.7257C154.129 58.3663 152.379 58.6866 150.394 58.6866C148.41 58.6866 146.652 58.3663 145.121 57.7257C143.589 57.0851 142.308 56.1866 141.277 55.0304C140.246 53.8585 139.464 52.4913 138.933 50.9288C138.402 49.3507 138.136 47.6398 138.136 45.796ZM146.035 45.3038V45.796C146.035 46.7491 146.105 47.6398 146.246 48.4679C146.386 49.296 146.621 50.0226 146.949 50.6476C147.277 51.257 147.722 51.7335 148.285 52.0773C148.847 52.421 149.55 52.5929 150.394 52.5929C151.222 52.5929 151.91 52.421 152.457 52.0773C153.019 51.7335 153.464 51.257 153.793 50.6476C154.121 50.0226 154.355 49.296 154.496 48.4679C154.636 47.6398 154.707 46.7491 154.707 45.796V45.3038C154.707 44.382 154.636 43.5148 154.496 42.7023C154.355 41.8741 154.121 41.1476 153.793 40.5226C153.464 39.882 153.019 39.382 152.457 39.0226C151.894 38.6632 151.191 38.4835 150.347 38.4835C149.519 38.4835 148.824 38.6632 148.261 39.0226C147.714 39.382 147.277 39.882 146.949 40.5226C146.621 41.1476 146.386 41.8741 146.246 42.7023C146.105 43.5148 146.035 44.382 146.035 45.3038Z" fill="#5696F8"/>
<path d="M181.402 21.6554H187.754C187.754 22.7804 187.636 23.796 187.402 24.7023C187.168 25.5929 186.73 26.3976 186.089 27.1163C185.449 27.8195 184.511 28.4366 183.277 28.9679C182.058 29.4835 180.449 29.921 178.449 30.2804C177.168 30.5304 176.089 30.9601 175.214 31.5695C174.339 32.1788 173.636 33.007 173.105 34.0538C172.589 35.0851 172.222 36.3663 172.004 37.8976C171.8 39.4288 171.722 41.2413 171.769 43.3351V43.9679L165.722 45.046V44.4132C165.738 41.2726 166.011 38.546 166.543 36.2335C167.074 33.9054 167.832 31.9445 168.816 30.3507C169.816 28.757 171.019 27.4835 172.425 26.5304C173.832 25.5773 175.41 24.9054 177.16 24.5148C178.269 24.2648 179.129 24.0226 179.738 23.7882C180.363 23.5538 180.793 23.2726 181.027 22.9445C181.277 22.6163 181.402 22.1866 181.402 21.6554ZM179.457 34.2648C181.207 34.2648 182.754 34.5616 184.097 35.1554C185.441 35.7491 186.566 36.5851 187.472 37.6632C188.379 38.7413 189.066 40.0148 189.535 41.4835C190.004 42.9366 190.238 44.5226 190.238 46.2413V46.7335C190.238 48.4523 189.972 50.046 189.441 51.5148C188.91 52.9679 188.129 54.2335 187.097 55.3116C186.066 56.3898 184.785 57.2257 183.254 57.8195C181.738 58.4132 179.988 58.7101 178.004 58.7101C176.019 58.7101 174.261 58.382 172.73 57.7257C171.199 57.0538 169.91 56.1163 168.863 54.9132C167.832 53.7101 167.05 52.296 166.519 50.671C165.988 49.046 165.722 47.2648 165.722 45.3273V44.8351C165.707 44.6163 165.839 44.4132 166.121 44.2257C166.418 44.0226 166.761 43.7726 167.152 43.4757C167.558 43.1632 167.918 42.7413 168.23 42.2101C169.339 40.3195 170.472 38.796 171.629 37.6398C172.785 36.4679 174.004 35.6163 175.285 35.0851C176.566 34.5382 177.957 34.2648 179.457 34.2648ZM177.957 40.3585C176.847 40.3585 175.972 40.632 175.332 41.1788C174.707 41.7101 174.261 42.421 173.996 43.3116C173.746 44.2023 173.621 45.1788 173.621 46.2413V46.7335C173.621 47.5616 173.691 48.3351 173.832 49.0538C173.972 49.757 174.207 50.382 174.535 50.9288C174.863 51.4601 175.308 51.8741 175.871 52.171C176.449 52.4679 177.16 52.6163 178.004 52.6163C178.832 52.6163 179.527 52.4679 180.089 52.171C180.652 51.8741 181.097 51.4601 181.425 50.9288C181.754 50.382 181.988 49.757 182.129 49.0538C182.269 48.3351 182.339 47.5616 182.339 46.7335V46.2413C182.339 45.4445 182.269 44.6945 182.129 43.9913C181.988 43.2726 181.754 42.6476 181.425 42.1163C181.097 41.5695 180.644 41.1398 180.066 40.8273C179.504 40.5148 178.8 40.3585 177.957 40.3585Z" fill="#5696F8"/>
<path d="M201.23 47.5773L208.214 32.8585H216.113V58.2179H208.214V43.4523L201.23 58.2179H193.308V32.8585H201.23V47.5773Z" fill="#5696F8"/>
<path d="M248.246 49.4991L253.988 32.8585H260.105L250.894 58.2179H245.621L236.433 32.8585H242.574L248.246 49.4991ZM240.793 32.8585V58.2179H232.894V32.8585H240.793ZM256.004 58.2179V32.8585H263.902V58.2179H256.004Z" fill="#5696F8"/>
<path d="M277.543 32.8585V58.2179H269.621V32.8585H277.543ZM269.152 26.3195C269.152 25.1945 269.558 24.2726 270.371 23.5538C271.183 22.8351 272.238 22.4757 273.535 22.4757C274.832 22.4757 275.886 22.8351 276.699 23.5538C277.511 24.2726 277.918 25.1945 277.918 26.3195C277.918 27.4445 277.511 28.3663 276.699 29.0851C275.886 29.8038 274.832 30.1632 273.535 30.1632C272.238 30.1632 271.183 29.8038 270.371 29.0851C269.558 28.3663 269.152 27.4445 269.152 26.3195Z" fill="#5696F8"/>
<path d="M293.129 52.5929C293.863 52.5929 294.488 52.4601 295.004 52.1945C295.535 51.9132 295.933 51.5226 296.199 51.0226C296.48 50.507 296.613 49.8898 296.597 49.171H304.027C304.043 51.0773 303.574 52.7491 302.621 54.1866C301.683 55.6085 300.402 56.7179 298.777 57.5148C297.168 58.296 295.347 58.6866 293.316 58.6866C291.332 58.6866 289.597 58.3663 288.113 57.7257C286.629 57.0695 285.386 56.1632 284.386 55.007C283.402 53.8351 282.66 52.4679 282.16 50.9054C281.675 49.3429 281.433 47.6476 281.433 45.8195V45.2804C281.433 43.4523 281.675 41.757 282.16 40.1945C282.66 38.6163 283.402 37.2491 284.386 36.0929C285.386 34.921 286.621 34.0148 288.089 33.3741C289.574 32.7179 291.3 32.3898 293.269 32.3898C295.379 32.3898 297.238 32.7882 298.847 33.5851C300.472 34.382 301.746 35.5382 302.668 37.0538C303.589 38.5695 304.043 40.4054 304.027 42.5616H296.597C296.613 41.796 296.496 41.1085 296.246 40.4991C295.996 39.8898 295.605 39.4054 295.074 39.046C294.558 38.671 293.894 38.4835 293.082 38.4835C292.269 38.4835 291.613 38.6632 291.113 39.0226C290.613 39.382 290.23 39.882 289.964 40.5226C289.714 41.1476 289.543 41.8663 289.449 42.6788C289.371 43.4913 289.332 44.3585 289.332 45.2804V45.8195C289.332 46.757 289.371 47.6398 289.449 48.4679C289.543 49.2804 289.722 49.9991 289.988 50.6241C290.254 51.2335 290.636 51.7179 291.136 52.0773C291.636 52.421 292.3 52.5929 293.129 52.5929Z" fill="#5696F8"/>
<path d="M321.605 32.8585V58.2179H313.683V32.8585H321.605ZM329.621 32.8585V38.9054H305.808V32.8585H329.621Z" fill="#5696F8"/>
<path d="M330.886 45.796V45.3038C330.886 43.4445 331.152 41.7335 331.683 40.171C332.214 38.5929 332.996 37.2257 334.027 36.0695C335.058 34.9132 336.332 34.0148 337.847 33.3741C339.363 32.7179 341.113 32.3898 343.097 32.3898C345.097 32.3898 346.855 32.7179 348.371 33.3741C349.902 34.0148 351.183 34.9132 352.214 36.0695C353.246 37.2257 354.027 38.5929 354.558 40.171C355.089 41.7335 355.355 43.4445 355.355 45.3038V45.796C355.355 47.6398 355.089 49.3507 354.558 50.9288C354.027 52.4913 353.246 53.8585 352.214 55.0304C351.183 56.1866 349.91 57.0851 348.394 57.7257C346.879 58.3663 345.129 58.6866 343.144 58.6866C341.16 58.6866 339.402 58.3663 337.871 57.7257C336.339 57.0851 335.058 56.1866 334.027 55.0304C332.996 53.8585 332.214 52.4913 331.683 50.9288C331.152 49.3507 330.886 47.6398 330.886 45.796ZM338.785 45.3038V45.796C338.785 46.7491 338.855 47.6398 338.996 48.4679C339.136 49.296 339.371 50.0226 339.699 50.6476C340.027 51.257 340.472 51.7335 341.035 52.0773C341.597 52.421 342.3 52.5929 343.144 52.5929C343.972 52.5929 344.66 52.421 345.207 52.0773C345.769 51.7335 346.214 51.257 346.543 50.6476C346.871 50.0226 347.105 49.296 347.246 48.4679C347.386 47.6398 347.457 46.7491 347.457 45.796V45.3038C347.457 44.382 347.386 43.5148 347.246 42.7023C347.105 41.8741 346.871 41.1476 346.543 40.5226C346.214 39.882 345.769 39.382 345.207 39.0226C344.644 38.6632 343.941 38.4835 343.097 38.4835C342.269 38.4835 341.574 38.6632 341.011 39.0226C340.464 39.382 340.027 39.882 339.699 40.5226C339.371 41.1476 339.136 41.8741 338.996 42.7023C338.855 43.5148 338.785 44.382 338.785 45.3038Z" fill="#5696F8"/>
<path d="M91.6832 74.0929H98.3864L106.004 97.8351L113.621 74.0929H120.324L108.722 108.218H103.285L91.6832 74.0929ZM87.6051 74.0929H94.5426L95.8317 100.249V108.218H87.6051V74.0929ZM117.464 74.0929H124.425V108.218H116.175V100.249L117.464 74.0929Z" fill="#B0B0B0"/>
<path d="M142.496 101.843V91.3898C142.496 90.671 142.394 90.0538 142.191 89.5382C141.988 89.0226 141.668 88.6241 141.23 88.3429C140.793 88.046 140.207 87.8976 139.472 87.8976C138.879 87.8976 138.371 87.9991 137.949 88.2023C137.527 88.4054 137.207 88.7101 136.988 89.1163C136.769 89.5226 136.66 90.0382 136.66 90.6632H128.761C128.761 89.4913 129.019 88.4054 129.535 87.4054C130.066 86.3898 130.816 85.507 131.785 84.757C132.769 84.007 133.941 83.4288 135.3 83.0226C136.675 82.6007 138.207 82.3898 139.894 82.3898C141.91 82.3898 143.707 82.7257 145.285 83.3976C146.879 84.0695 148.136 85.0773 149.058 86.421C149.98 87.7491 150.441 89.421 150.441 91.4366V101.819C150.441 103.476 150.535 104.734 150.722 105.593C150.91 106.437 151.175 107.179 151.519 107.819V108.218H143.597C143.222 107.437 142.941 106.484 142.754 105.359C142.582 104.218 142.496 103.046 142.496 101.843ZM143.457 92.7257L143.504 96.9445H140.011C139.277 96.9445 138.652 97.046 138.136 97.2491C137.636 97.4523 137.23 97.7335 136.918 98.0929C136.621 98.4366 136.402 98.8273 136.261 99.2648C136.136 99.7023 136.074 100.163 136.074 100.648C136.074 101.116 136.183 101.538 136.402 101.913C136.636 102.273 136.949 102.554 137.339 102.757C137.73 102.96 138.168 103.062 138.652 103.062C139.527 103.062 140.269 102.898 140.879 102.569C141.504 102.226 141.98 101.812 142.308 101.327C142.636 100.843 142.8 100.39 142.8 99.9679L144.535 103.202C144.222 103.827 143.863 104.46 143.457 105.101C143.066 105.741 142.574 106.335 141.98 106.882C141.402 107.413 140.691 107.851 139.847 108.194C139.004 108.523 137.98 108.687 136.777 108.687C135.214 108.687 133.777 108.366 132.464 107.726C131.168 107.085 130.129 106.194 129.347 105.054C128.566 103.898 128.175 102.569 128.175 101.069C128.175 99.757 128.41 98.5851 128.879 97.5538C129.363 96.5226 130.089 95.6476 131.058 94.9288C132.027 94.2101 133.261 93.6632 134.761 93.2882C136.261 92.9132 138.027 92.7257 140.058 92.7257H143.457Z" fill="#B0B0B0"/>
<path d="M162.793 72.1945V108.218H154.894V72.1945H162.793ZM179.011 82.8585L167.996 95.7726L162.23 101.538L158.785 96.5226L163.589 90.2648L169.543 82.8585H179.011ZM170.55 108.218L163.777 96.6632L169.613 92.5148L179.597 108.218H170.55Z" fill="#B0B0B0"/>
<path d="M192.886 108.687C190.824 108.687 188.98 108.366 187.355 107.726C185.73 107.069 184.355 106.171 183.23 105.03C182.121 103.89 181.269 102.577 180.675 101.093C180.097 99.6085 179.808 98.0382 179.808 96.382V95.4913C179.808 93.632 180.066 91.9132 180.582 90.3351C181.097 88.7413 181.863 87.3507 182.879 86.1632C183.894 84.9757 185.168 84.0538 186.699 83.3976C188.23 82.7257 190.011 82.3898 192.043 82.3898C193.839 82.3898 195.449 82.6788 196.871 83.257C198.293 83.8351 199.496 84.6632 200.48 85.7413C201.48 86.8195 202.238 88.1241 202.754 89.6554C203.285 91.1866 203.55 92.9054 203.55 94.8116V98.0226H182.832V93.0773H195.839V92.4679C195.855 91.6241 195.707 90.9054 195.394 90.3116C195.097 89.7179 194.66 89.2648 194.082 88.9523C193.504 88.6398 192.8 88.4835 191.972 88.4835C191.113 88.4835 190.402 88.671 189.839 89.046C189.293 89.421 188.863 89.9366 188.55 90.5929C188.254 91.2335 188.043 91.9757 187.918 92.8195C187.793 93.6632 187.73 94.5538 187.73 95.4913V96.382C187.73 97.3195 187.855 98.171 188.105 98.9366C188.371 99.7023 188.746 100.359 189.23 100.905C189.73 101.437 190.324 101.851 191.011 102.148C191.714 102.444 192.511 102.593 193.402 102.593C194.48 102.593 195.543 102.39 196.589 101.984C197.636 101.577 198.535 100.905 199.285 99.9679L202.871 104.234C202.355 104.968 201.621 105.679 200.668 106.366C199.73 107.054 198.605 107.616 197.293 108.054C195.98 108.476 194.511 108.687 192.886 108.687Z" fill="#B0B0B0"/>
<path d="M231.886 101.843V91.3898C231.886 90.671 231.785 90.0538 231.582 89.5382C231.379 89.0226 231.058 88.6241 230.621 88.3429C230.183 88.046 229.597 87.8976 228.863 87.8976C228.269 87.8976 227.761 87.9991 227.339 88.2023C226.918 88.4054 226.597 88.7101 226.379 89.1163C226.16 89.5226 226.05 90.0382 226.05 90.6632H218.152C218.152 89.4913 218.41 88.4054 218.925 87.4054C219.457 86.3898 220.207 85.507 221.175 84.757C222.16 84.007 223.332 83.4288 224.691 83.0226C226.066 82.6007 227.597 82.3898 229.285 82.3898C231.3 82.3898 233.097 82.7257 234.675 83.3976C236.269 84.0695 237.527 85.0773 238.449 86.421C239.371 87.7491 239.832 89.421 239.832 91.4366V101.819C239.832 103.476 239.925 104.734 240.113 105.593C240.3 106.437 240.566 107.179 240.91 107.819V108.218H232.988C232.613 107.437 232.332 106.484 232.144 105.359C231.972 104.218 231.886 103.046 231.886 101.843ZM232.847 92.7257L232.894 96.9445H229.402C228.668 96.9445 228.043 97.046 227.527 97.2491C227.027 97.4523 226.621 97.7335 226.308 98.0929C226.011 98.4366 225.793 98.8273 225.652 99.2648C225.527 99.7023 225.464 100.163 225.464 100.648C225.464 101.116 225.574 101.538 225.793 101.913C226.027 102.273 226.339 102.554 226.73 102.757C227.121 102.96 227.558 103.062 228.043 103.062C228.918 103.062 229.66 102.898 230.269 102.569C230.894 102.226 231.371 101.812 231.699 101.327C232.027 100.843 232.191 100.39 232.191 99.9679L233.925 103.202C233.613 103.827 233.254 104.46 232.847 105.101C232.457 105.741 231.964 106.335 231.371 106.882C230.793 107.413 230.082 107.851 229.238 108.194C228.394 108.523 227.371 108.687 226.168 108.687C224.605 108.687 223.168 108.366 221.855 107.726C220.558 107.085 219.519 106.194 218.738 105.054C217.957 103.898 217.566 102.569 217.566 101.069C217.566 99.757 217.8 98.5851 218.269 97.5538C218.754 96.5226 219.48 95.6476 220.449 94.9288C221.418 94.2101 222.652 93.6632 224.152 93.2882C225.652 92.9132 227.418 92.7257 229.449 92.7257H232.847Z" fill="#B0B0B0"/>
<path d="M266.879 102.593C267.613 102.593 268.238 102.46 268.754 102.194C269.285 101.913 269.683 101.523 269.949 101.023C270.23 100.507 270.363 99.8898 270.347 99.171H277.777C277.793 101.077 277.324 102.749 276.371 104.187C275.433 105.609 274.152 106.718 272.527 107.515C270.918 108.296 269.097 108.687 267.066 108.687C265.082 108.687 263.347 108.366 261.863 107.726C260.379 107.069 259.136 106.163 258.136 105.007C257.152 103.835 256.41 102.468 255.91 100.905C255.425 99.3429 255.183 97.6476 255.183 95.8195V95.2804C255.183 93.4523 255.425 91.757 255.91 90.1945C256.41 88.6163 257.152 87.2491 258.136 86.0929C259.136 84.921 260.371 84.0148 261.839 83.3741C263.324 82.7179 265.05 82.3898 267.019 82.3898C269.129 82.3898 270.988 82.7882 272.597 83.5851C274.222 84.382 275.496 85.5382 276.418 87.0538C277.339 88.5695 277.793 90.4054 277.777 92.5616H270.347C270.363 91.796 270.246 91.1085 269.996 90.4991C269.746 89.8898 269.355 89.4054 268.824 89.046C268.308 88.671 267.644 88.4835 266.832 88.4835C266.019 88.4835 265.363 88.6632 264.863 89.0226C264.363 89.382 263.98 89.882 263.714 90.5226C263.464 91.1476 263.293 91.8663 263.199 92.6788C263.121 93.4913 263.082 94.3585 263.082 95.2804V95.8195C263.082 96.757 263.121 97.6398 263.199 98.4679C263.293 99.2804 263.472 99.9991 263.738 100.624C264.004 101.234 264.386 101.718 264.886 102.077C265.386 102.421 266.05 102.593 266.879 102.593Z" fill="#B0B0B0"/>
<path d="M289.496 82.8585V108.218H281.574V82.8585H289.496ZM281.105 76.3195C281.105 75.1945 281.511 74.2726 282.324 73.5538C283.136 72.8351 284.191 72.4757 285.488 72.4757C286.785 72.4757 287.839 72.8351 288.652 73.5538C289.464 74.2726 289.871 75.1945 289.871 76.3195C289.871 77.4445 289.464 78.3663 288.652 79.0851C287.839 79.8038 286.785 80.1632 285.488 80.1632C284.191 80.1632 283.136 79.8038 282.324 79.0851C281.511 78.3663 281.105 77.4445 281.105 76.3195Z" fill="#B0B0B0"/>
<path d="M307.73 82.8585V88.3429H292.449V82.8585H307.73ZM295.66 76.5538H303.558V99.9445C303.558 100.616 303.636 101.14 303.793 101.515C303.949 101.874 304.214 102.132 304.589 102.288C304.98 102.429 305.496 102.499 306.136 102.499C306.589 102.499 306.964 102.491 307.261 102.476C307.558 102.444 307.839 102.405 308.105 102.359V108.007C307.433 108.226 306.73 108.39 305.996 108.499C305.261 108.624 304.48 108.687 303.652 108.687C301.964 108.687 300.519 108.421 299.316 107.89C298.129 107.359 297.222 106.523 296.597 105.382C295.972 104.241 295.66 102.757 295.66 100.929V76.5538Z" fill="#B0B0B0"/>
<path d="M318.652 105.241L325.214 82.8585H333.699L323.504 111.991C323.285 112.632 322.996 113.319 322.636 114.054C322.277 114.804 321.785 115.515 321.16 116.187C320.535 116.859 319.73 117.405 318.746 117.827C317.777 118.249 316.574 118.46 315.136 118.46C314.371 118.46 313.808 118.421 313.449 118.343C313.105 118.28 312.574 118.163 311.855 117.991V112.343C312.058 112.343 312.23 112.343 312.371 112.343C312.527 112.343 312.699 112.343 312.886 112.343C313.73 112.343 314.402 112.257 314.902 112.085C315.418 111.913 315.808 111.663 316.074 111.335C316.355 111.007 316.574 110.609 316.73 110.14L318.652 105.241ZM316.988 82.8585L321.98 100.601L322.847 108.968H317.55L308.527 82.8585H316.988Z" fill="#B0B0B0"/>
<path d="M69.6597 74.0626C68.6036 60.7518 65.0042 46.9269 57.9203 43.5493C57.566 40.299 56.2111 37.2366 54.0406 34.7802C54.3939 34.5186 54.6801 34.178 54.8761 33.7859C55.0721 33.3939 55.1723 32.9614 55.1686 32.5236C55.1686 30.7169 53.3366 29.4316 49.7084 28.6603C49.7158 28.5343 49.7158 28.4079 49.7084 28.2819C49.7084 25.3684 45.8432 24.2401 42.4737 23.8188L40.2393 2.12451C40.2345 1.55634 40.0029 1.01332 39.5953 0.614912C39.1878 0.216502 38.6376 -0.00466027 38.066 7.44856e-05C37.4944 0.00480924 36.948 0.235053 36.5472 0.640158C36.1464 1.04526 35.9238 1.59205 35.9286 2.16022L34.0894 23.833C30.7486 24.2686 26.9696 25.3969 26.9696 28.2819C26.9686 28.4859 26.9903 28.6895 27.0343 28.8889C24.0527 29.6744 22.5368 30.8883 22.5368 32.5236C22.5319 32.9989 22.6722 33.4645 22.9391 33.859C21.2508 35.2872 20.3886 38.9505 19.5408 44.9203C13.4556 48.5979 9.15929 56.6315 8.91502 66.0147C6.75968 67.193 5.21502 70.7563 3.88589 77.1475C2.57664 84.2972 1.94642 91.5534 2.00356 98.8203H6.31424C6.31424 84.9669 8.7857 72.9272 10.6752 70.2136C11.4583 71.5918 13.0461 76.6976 13.0461 95.4926H17.3568C17.3568 94.5786 17.3568 93.7003 17.3568 92.8362C17.3036 89.2532 17.9684 85.6954 19.3124 82.3703C20.6564 79.0452 22.6527 76.0191 25.185 73.4685C27.7173 70.9178 30.735 68.8936 34.0622 67.5137C37.3895 66.1338 40.9597 65.4258 44.565 65.431C48.1703 65.4362 51.7384 66.1545 55.0616 67.544C58.3848 68.9335 61.3966 70.9665 63.9214 73.5245C66.4462 76.0824 68.4336 79.1142 69.7679 82.4432C71.1021 85.7722 71.7565 89.3319 71.6929 92.9148H76.0036C76.0104 86.1118 73.783 79.4925 69.6597 74.0626V74.0626ZM61.9579 56.303C60.521 52.9682 58.5597 50.376 55.8871 50.376C51.1453 50.376 50.0173 55.3104 48.9971 61.8444C48.3936 61.7516 47.783 61.6873 47.1651 61.6302C47.7973 52.1684 51.2674 47.0769 54.5651 47.0769C56.6917 47.0769 59.6302 49.7548 61.9579 56.303ZM60.2408 65.7577C58.0332 64.4765 55.6759 63.4693 53.2216 62.7585C53.7964 59.0237 54.5867 54.7891 55.8296 54.6606C56.7851 55.0819 58.8542 58.7595 60.2408 65.7577V65.7577ZM41.9564 33.6233C44.6527 33.6265 47.2662 34.5505 49.3589 36.2405C51.4516 37.9305 52.8964 40.2839 53.4515 42.9066C52.8799 42.9829 52.3185 43.1218 51.7776 43.3207C51.2639 41.0905 50.0043 39.0993 48.2048 37.6725C46.4053 36.2457 44.1721 35.4678 41.8702 35.4657C39.5259 35.4425 37.2491 36.2452 35.4435 37.7315C33.6378 39.2177 32.42 41.2914 32.0059 43.585C31.5461 43.4421 31.0719 43.3207 30.569 43.2208C30.9911 40.5266 32.3733 38.073 34.4637 36.3073C36.554 34.5416 39.2132 33.5814 41.9564 33.6019V33.6233ZM36.137 45.4559C36.1303 44.7038 36.2743 43.958 36.5608 43.2618C36.8473 42.5657 37.2704 41.9333 37.8054 41.4015C38.3405 40.8697 38.9767 40.4491 39.6771 40.1644C40.3775 39.8797 41.1279 39.7365 41.8845 39.7431C43.435 39.745 44.9214 40.358 46.0177 41.4477C47.114 42.5374 47.7308 44.0148 47.7327 45.5559V46.3271C45.9366 48.4694 44.5643 51.5543 43.7166 55.3461C42.3439 51.3271 39.6873 47.864 36.1514 45.4845L36.137 45.4559ZM24.9148 39.6646C25.0729 40.65 25.2094 41.8069 25.3315 42.9351C24.9651 42.978 24.6131 43.0423 24.2323 43.1137C24.4838 41.6069 24.7065 40.4858 24.9148 39.6646ZM27.0702 47.1055C34.3337 47.1055 39.8082 53.1039 40.8356 61.7444L39.7938 61.8801C38.8311 54.2321 33.917 48.9264 27.3935 48.9264C20.87 48.9264 15.5103 55.696 14.9643 64.6365H13.3838C14.1525 54.7392 19.9647 47.0769 27.0414 47.0769L27.0702 47.1055ZM19.6271 64.5865H19.2463C19.6558 59.4379 22.0554 55.1176 25.1591 53.6966C21.9764 56.1459 20.1731 60.2877 19.6271 64.5865ZM23.7653 67.1002C23.8659 60.2663 27.1851 55.6746 32.1352 55.6746C32.3418 55.6782 32.548 55.6925 32.7531 55.7175C34.3802 57.7307 35.3502 60.1897 35.5335 62.7656C31.5031 63.9589 27.7552 65.9453 24.5125 68.6069C24.3087 68.0837 24.0586 67.5795 23.7653 67.1002V67.1002ZM16.703 78.1687C16.2647 73.7555 15.6181 70.7992 14.7776 68.8854H19.5552C19.9001 68.8854 20.5538 69.7566 21.028 72.006C19.3425 73.8801 17.8903 75.9492 16.703 78.1687V78.1687Z" fill="#5696F8"/>
<path d="M45.484 74.6553C40.5881 74.6629 35.895 76.5998 32.4338 80.0415C28.9725 83.4831 27.0256 88.1485 27.0199 93.0148V107.568H31.3306V93.0005C31.2881 91.1259 31.6228 89.2619 32.3152 87.5177C33.0076 85.7735 34.0436 84.1845 35.3624 82.8438C36.6812 81.5031 38.2562 80.4378 39.995 79.7105C41.7337 78.9833 43.6011 78.6086 45.4876 78.6086C47.374 78.6086 49.2414 78.9833 50.9802 79.7105C52.7189 80.4378 54.2939 81.5031 55.6127 82.8438C56.9316 84.1845 57.9676 85.7735 58.6599 87.5177C59.3523 89.2619 59.687 91.1259 59.6445 93.0005V108.218H63.9552V93.0005C63.9457 88.1355 61.9961 83.4726 58.5338 80.0339C55.0714 76.5951 50.3786 74.661 45.484 74.6553V74.6553Z" fill="#5696F8"/>
</svg>
