<svg width="20" height="16" viewBox="0 0 20 16" fill="none" xmlns="http://www.w3.org/2000/svg">
    <path fill-rule="evenodd" clip-rule="evenodd" d="M3 0H17C18.654 0 20 1.346 20 3V13C20 14.654 18.654 16 17 16H3C1.346 16 0 14.654 0 13V3C0 1.346 1.346 0 3 0ZM3 2H17C17.552 2 18 2.449 18 3V3.412L10 7.856L2 3.412V3C2 2.449 2.448 2 3 2ZM3 14C2.448 14 2 13.551 2 13V5.699L9.515 9.874C9.665 9.958 9.833 10 10 10C10.167 10 10.335 9.958 10.485 9.874L18 5.699V13C18 13.551 17.552 14 17 14H3Z" fill="#1D1D20"/>
</svg>
