<svg width="20" height="20" viewBox="0 0 20 20" fill="none" xmlns="http://www.w3.org/2000/svg">
    <mask id="mask0_30_36" style="mask-type:alpha" maskUnits="userSpaceOnUse" x="0" y="0" width="21" height="20">
        <path d="M0.000419617 0H20.001V19.8795H0.000419617V0Z" fill="white"/>
    </mask>
    <g mask="url(#mask0_30_36)">
        <path fill-rule="evenodd" clip-rule="evenodd" d="M20.0008 9.99989C20.0008 4.47656 15.5232 -0.000976562 9.99988 -0.000976562C4.47655 -0.000976562 -0.000984192 4.47656 -0.000984192 9.99989C-0.000984192 14.9916 3.65619 19.129 8.43725 19.8793V12.8908H5.89797V9.99989H8.43725V7.79658C8.43725 5.29011 9.93031 3.90561 12.2147 3.90561C13.3089 3.90561 14.4534 4.10094 14.4534 4.10094V6.56209H13.1923C11.95 6.56209 11.5625 7.333 11.5625 8.12389V9.99989H14.3362L13.8928 12.8908H11.5625V19.8793C16.3436 19.129 20.0008 14.9916 20.0008 9.99989Z" fill="#1877F2"/>
    </g>
    <path fill-rule="evenodd" clip-rule="evenodd" d="M13.893 12.8909L14.3364 10H11.5628V8.12404C11.5628 7.33315 11.9502 6.56224 13.1926 6.56224H14.4536V4.10109C14.4536 4.10109 13.3091 3.90576 12.215 3.90576C9.93055 3.90576 8.43749 5.29026 8.43749 7.79672V10H5.89821V12.8909H8.43749V19.8794C8.94666 19.9593 9.46852 20.0009 10.0001 20.0009C10.5317 20.0009 11.0536 19.9593 11.5628 19.8794V12.8909H13.893Z" fill="white"/>
</svg>
