<svg width="18" height="20" viewBox="0 0 18 20" fill="none" xmlns="http://www.w3.org/2000/svg">
    <path fill-rule="evenodd" clip-rule="evenodd" d="M12.125 13.944C12.751 13.363 13.581 13 14.5 13C16.43 13 18 14.57 18 16.5C18 18.43 16.43 20 14.5 20C12.57 20 11 18.43 11 16.5C11 16.214 11.044 15.939 11.109 15.673L5.875 13.056C5.249 13.637 4.419 14 3.5 14C1.57 14 0 12.43 0 10.5C0 8.57 1.57 7 3.5 7C4.399 7 5.212 7.351 5.832 7.91L11.126 4.381C11.052 4.098 11 3.806 11 3.5C11 1.57 12.57 0 14.5 0C16.43 0 18 1.57 18 3.5C18 5.43 16.43 7 14.5 7C13.601 7 12.788 6.649 12.168 6.09L6.874 9.619C6.948 9.902 7 10.194 7 10.5C7 10.786 6.956 11.061 6.891 11.327L12.125 13.944ZM14.5 2C15.327 2 16 2.673 16 3.5C16 4.327 15.327 5 14.5 5C13.673 5 13 4.327 13 3.5C13 2.673 13.673 2 14.5 2ZM2 10.5C2 11.327 2.673 12 3.5 12C4.327 12 5 11.327 5 10.5C5 9.673 4.327 9 3.5 9C2.673 9 2 9.673 2 10.5ZM13 16.5C13 17.327 13.673 18 14.5 18C15.327 18 16 17.327 16 16.5C16 15.673 15.327 15 14.5 15C13.673 15 13 15.673 13 16.5Z" fill="#1D1D20"/>
</svg>
