<svg width="20" height="18" viewBox="0 0 20 18" fill="none" xmlns="http://www.w3.org/2000/svg">
    <g style="mix-blend-mode:multiply">
        <path fill-rule="evenodd" clip-rule="evenodd" d="M20 2.51256C19.2642 2.85423 18.4733 3.08434 17.6433 3.18806C18.4908 2.65725 19.1417 1.81614 19.4475 0.813782C18.655 1.30537 17.7767 1.66274 16.8417 1.85536C16.0942 1.02123 15.0267 0.5 13.8467 0.5C11.1975 0.5 9.25083 3.08521 9.84917 5.76892C6.44 5.59024 3.41667 3.88187 1.3925 1.28533C0.3175 3.21421 0.835 5.73754 2.66167 7.01533C1.99 6.99267 1.35667 6.80004 0.804167 6.47841C0.759167 8.46657 2.12167 10.3266 4.095 10.7406C3.5175 10.9045 2.885 10.9428 2.24167 10.8138C2.76333 12.5187 4.27833 13.759 6.075 13.7939C4.35 15.2085 2.17667 15.8404 0 15.572C1.81583 16.7896 3.97333 17.5 6.29 17.5C13.9083 17.5 18.2125 10.7703 17.9525 4.73431C18.7542 4.12854 19.45 3.37285 20 2.51256Z" fill="#1DA1F2"/>
    </g>
</svg>
