<svg width="58" height="46" viewBox="0 0 58 46" fill="none" xmlns="http://www.w3.org/2000/svg">
<g clip-path="url(#clip0_2_1838)">
<path fill-rule="evenodd" clip-rule="evenodd" d="M9.75 1H48.25C52.7985 1 56.5 4.7015 56.5 9.25V36.75C56.5 41.2985 52.7985 45 48.25 45H9.75C5.2015 45 1.5 41.2985 1.5 36.75V9.25C1.5 4.7015 5.2015 1 9.75 1ZM51 36.75C51 38.268 49.768 39.5 48.25 39.5H9.75C8.232 39.5 7 38.268 7 36.75V9.25C7 7.732 8.232 6.5 9.75 6.5H48.25C49.768 6.5 51 7.732 51 9.25V36.75ZM20.75 18.875C20.75 21.152 18.902 23 16.625 23C14.348 23 12.5 21.152 12.5 18.875C12.5 16.598 14.348 14.75 16.625 14.75C18.902 14.75 20.75 16.598 20.75 18.875ZM45.5 28.5C45.5 30.0208 44.2707 31.25 42.75 31.25H29C27.4792 31.25 26.25 30.0208 26.25 28.5C26.25 26.9792 27.4792 25.75 29 25.75H42.75C44.2707 25.75 45.5 26.9792 45.5 28.5ZM42.75 20.25C44.2707 20.25 45.5 19.0208 45.5 17.5C45.5 15.9792 44.2707 14.75 42.75 14.75H29C27.4792 14.75 26.25 15.9792 26.25 17.5C26.25 19.0208 27.4792 20.25 29 20.25H42.75Z" fill="black"/>
</g>
<defs>
<clipPath id="clip0_2_1838">
<rect width="58" height="46" fill="white"/>
</clipPath>
</defs>
</svg>
