<svg width="74" height="109" viewBox="0 0 74 109" fill="none" xmlns="http://www.w3.org/2000/svg">
<g clip-path="url(#clip0_2_1825)">
<path d="M67.6597 74.8447C66.6036 61.534 63.0042 47.7091 55.9203 44.3314C55.566 41.0811 54.2111 38.0187 52.0406 35.5623C52.3939 35.3008 52.6801 34.9601 52.8761 34.5681C53.0721 34.176 53.1723 33.7435 53.1686 33.3057C53.1686 31.4991 51.3366 30.2137 47.7084 29.4425C47.7158 29.3164 47.7158 29.1901 47.7084 29.064C47.7084 26.1505 43.8432 25.0222 40.4737 24.6009L38.2393 2.90665C38.2345 2.33848 38.0029 1.79546 37.5953 1.39705C37.1878 0.998637 36.6376 0.777475 36.066 0.782209C35.4944 0.786944 34.948 1.01719 34.5472 1.42229C34.1464 1.8274 33.9238 2.37418 33.9286 2.94235L32.0894 24.6152C28.7486 25.0508 24.9696 26.1791 24.9696 29.064C24.9686 29.2681 24.9903 29.4716 25.0343 29.671C22.0527 30.4565 20.5368 31.6705 20.5368 33.3057C20.5319 33.7811 20.6722 34.2467 20.9391 34.6411C19.2508 36.0693 18.3886 39.7326 17.5408 45.7025C11.4556 49.3801 7.15929 57.4136 6.91502 66.7969C4.75968 67.9751 3.21502 71.5385 1.88589 77.9296C0.576637 85.0793 -0.0535752 92.3355 0.00356294 99.6025H4.31424C4.31424 85.749 6.7857 73.7093 8.67522 70.9958C9.45833 72.374 11.0461 77.4798 11.0461 96.2748H15.3568C15.3568 95.3607 15.3568 94.4824 15.3568 93.6184C15.3036 90.0353 15.9684 86.4776 17.3124 83.1524C18.6564 79.8273 20.6527 76.8013 23.185 74.2506C25.7173 71.7 28.735 69.6757 32.0622 68.2958C35.3895 66.9159 38.9597 66.2079 42.565 66.2131C46.1703 66.2183 49.7384 66.9366 53.0616 68.3262C56.3848 69.7157 59.3966 71.7486 61.9214 74.3066C64.4462 76.8646 66.4336 79.8964 67.7679 83.2254C69.1021 86.5544 69.7565 90.114 69.6929 93.6969H74.0036C74.0104 86.8939 71.783 80.2747 67.6597 74.8447V74.8447ZM59.9579 57.0852C58.521 53.7503 56.5597 51.1582 53.8871 51.1582C49.1453 51.1582 48.0173 56.0926 46.9971 62.6265C46.3936 62.5337 45.783 62.4694 45.1651 62.4123C45.7973 52.9505 49.2674 47.859 52.5651 47.859C54.6917 47.859 57.6302 50.5369 59.9579 57.0852ZM58.2408 66.5398C56.0332 65.2587 53.6759 64.2514 51.2216 63.5406C51.7964 59.8059 52.5867 55.5713 53.8296 55.4427C54.7851 55.8641 56.8542 59.5416 58.2408 66.5398V66.5398ZM39.9564 34.4054C42.6527 34.4086 45.2662 35.3326 47.3589 37.0226C49.4516 38.7126 50.8964 41.0661 51.4515 43.6887C50.8799 43.765 50.3185 43.9039 49.7776 44.1029C49.2639 41.8726 48.0043 39.8814 46.2048 38.4546C44.4053 37.0279 42.1721 36.2499 39.8702 36.2478C37.5259 36.2247 35.2491 37.0274 33.4435 38.5136C31.6378 39.9998 30.42 42.0735 30.0059 44.3671C29.5461 44.2243 29.0719 44.1029 28.569 44.0029C28.9911 41.3087 30.3733 38.8551 32.4637 37.0894C34.554 35.3237 37.2132 34.3635 39.9564 34.384V34.4054ZM34.137 46.238C34.1303 45.486 34.2743 44.7401 34.5608 44.044C34.8473 43.3479 35.2704 42.7154 35.8054 42.1836C36.3405 41.6518 36.9767 41.2313 37.6771 40.9465C38.3775 40.6618 39.1279 40.5186 39.8845 40.5253C41.435 40.5271 42.9214 41.1402 44.0177 42.2299C45.114 43.3195 45.7308 44.7969 45.7327 46.338V47.1092C43.9366 49.2515 42.5643 52.3364 41.7166 56.1283C40.3439 52.1092 37.6873 48.6462 34.1514 46.2666L34.137 46.238ZM22.9148 40.4467C23.0729 41.4322 23.2094 42.589 23.3315 43.7173C22.9651 43.7601 22.6131 43.8244 22.2323 43.8958C22.4838 42.3891 22.7065 41.2679 22.9148 40.4467ZM25.0702 47.8876C32.3337 47.8876 37.8082 53.886 38.8356 62.5266L37.7938 62.6623C36.8311 55.0143 31.917 49.7085 25.3935 49.7085C18.87 49.7085 13.5103 56.4782 12.9643 65.4187H11.3838C12.1525 55.5213 17.9647 47.859 25.0414 47.859L25.0702 47.8876ZM17.6271 65.3687H17.2463C17.6558 60.22 20.0554 55.8998 23.1591 54.4787C19.9764 56.9281 18.1731 61.0698 17.6271 65.3687ZM21.7653 67.8823C21.8659 61.0484 25.1851 56.4568 30.1352 56.4568C30.3418 56.4604 30.548 56.4747 30.7531 56.4996C32.3802 58.5128 33.3502 60.9718 33.5335 63.5477C29.5031 64.741 25.7552 66.7275 22.5125 69.389C22.3087 68.8659 22.0586 68.3616 21.7653 67.8823V67.8823ZM14.703 78.9508C14.2647 74.5377 13.6181 71.5813 12.7776 69.6675H17.5552C17.9001 69.6675 18.5538 70.5387 19.028 72.7881C17.3425 74.6622 15.8903 76.7313 14.703 78.9508V78.9508Z" fill="#5696F8"/>
<path d="M43.484 75.4374C38.5881 75.445 33.895 77.3819 30.4338 80.8236C26.9725 84.2652 25.0256 88.9306 25.0199 93.7969V108.35H29.3306V93.7826C29.2881 91.9081 29.6228 90.044 30.3152 88.2998C31.0076 86.5556 32.0436 84.9666 33.3624 83.6259C34.6812 82.2852 36.2562 81.2199 37.995 80.4926C39.7337 79.7654 41.6011 79.3907 43.4876 79.3907C45.374 79.3907 47.2414 79.7654 48.9802 80.4926C50.7189 81.2199 52.2939 82.2852 53.6127 83.6259C54.9316 84.9666 55.9676 86.5556 56.6599 88.2998C57.3523 90.044 57.687 91.9081 57.6445 93.7826V109H61.9552V93.7826C61.9457 88.9176 59.9961 84.2547 56.5338 80.816C53.0714 77.3772 48.3786 75.4431 43.484 75.4374V75.4374Z" fill="#5696F8"/>
</g>
<defs>
<clipPath id="clip0_2_1825">
<rect width="74" height="109" fill="white"/>
</clipPath>
</defs>
</svg>
