<svg width="177" height="61" viewBox="0 0 177 61" fill="none" xmlns="http://www.w3.org/2000/svg">
<path d="M50.3702 24.1518H47.8358V22.5688H49.4227C49.7499 22.5688 50.0125 22.5184 50.2104 22.4175C50.4159 22.3166 50.5643 22.177 50.6556 21.9985C50.7545 21.8122 50.804 21.6027 50.804 21.3699C50.804 21.1682 50.7698 20.9742 50.7013 20.788C50.6404 20.6017 50.5186 20.4465 50.3359 20.3224C50.1533 20.1982 49.8831 20.1361 49.5254 20.1361C49.2286 20.1361 48.9698 20.1749 48.7491 20.2525C48.5284 20.3301 48.3572 20.4504 48.2354 20.6134C48.1136 20.7686 48.0527 20.9703 48.0527 21.2186H44.1941C44.1941 20.4038 44.4224 19.7093 44.879 19.1351C45.3357 18.5531 45.9484 18.1108 46.717 17.8082C47.4857 17.4978 48.3343 17.3426 49.2628 17.3426C50.0772 17.3426 50.8154 17.4241 51.4776 17.587C52.1397 17.7422 52.7067 17.975 53.1786 18.2854C53.6504 18.5958 54.0119 18.9799 54.2631 19.4378C54.5219 19.8878 54.6512 20.4116 54.6512 21.0091C54.6512 21.4359 54.5523 21.8394 54.3544 22.2196C54.1565 22.5999 53.8711 22.9374 53.4982 23.2323C53.1253 23.5194 52.6724 23.7444 52.1397 23.9074C51.6146 24.0703 51.0247 24.1518 50.3702 24.1518ZM47.8358 23.3138H50.3702C51.1008 23.3138 51.7439 23.3875 52.2995 23.5349C52.8627 23.6746 53.3346 23.8841 53.7151 24.1635C54.0957 24.4428 54.3811 24.7881 54.5713 25.1994C54.7692 25.6029 54.8681 26.0685 54.8681 26.5962C54.8681 27.1937 54.7312 27.7291 54.4572 28.2024C54.1832 28.668 53.795 29.0638 53.2927 29.3897C52.7904 29.7156 52.1968 29.9639 51.5118 30.1346C50.8268 30.3053 50.0772 30.3907 49.2628 30.3907C48.4028 30.3907 47.5694 30.251 46.7627 29.9717C45.956 29.6923 45.2938 29.2616 44.7763 28.6797C44.2588 28.0977 44 27.3489 44 26.4332H47.8586C47.8586 26.6427 47.9157 26.8367 48.0299 27.0152C48.1441 27.1937 48.3229 27.3372 48.5664 27.4458C48.8176 27.5467 49.1411 27.5972 49.5368 27.5972C49.925 27.5972 50.2256 27.5312 50.4387 27.3993C50.6594 27.2674 50.8116 27.0967 50.8953 26.8871C50.9867 26.6776 51.0323 26.4642 51.0323 26.247C51.0323 25.9133 50.9714 25.6456 50.8497 25.4438C50.7279 25.2421 50.5452 25.0946 50.3017 25.0015C50.0658 24.9006 49.7728 24.8502 49.4227 24.8502H47.8358V23.3138Z" fill="#B0B0B0"/>
<path d="M60.3821 19.9848V35H56.5349V17.5638H60.1196L60.3821 19.9848ZM67.9624 23.7095V23.9539C67.9624 24.8696 67.8597 25.7193 67.6542 26.503C67.4487 27.2868 67.1443 27.9696 66.7409 28.5516C66.3375 29.1336 65.8352 29.5876 65.234 29.9135C64.6403 30.2316 63.9516 30.3907 63.1677 30.3907C62.4294 30.3907 61.7939 30.2239 61.2612 29.8902C60.7284 29.5565 60.2832 29.0948 59.9255 28.5051C59.5678 27.9153 59.2786 27.2402 59.0579 26.4798C58.8372 25.7193 58.6621 24.9162 58.5327 24.0703V23.7561C58.6621 22.8482 58.8372 22.0062 59.0579 21.2303C59.2786 20.4465 59.5678 19.7637 59.9255 19.1817C60.2832 18.5997 60.7246 18.1457 61.2498 17.8198C61.7825 17.4939 62.418 17.331 63.1563 17.331C63.9402 17.331 64.6289 17.4823 65.2226 17.7849C65.8238 18.0876 66.3261 18.5221 66.7295 19.0886C67.1405 19.6473 67.4487 20.3185 67.6542 21.1022C67.8597 21.886 67.9624 22.7551 67.9624 23.7095ZM64.1152 23.9539V23.7095C64.1152 23.2206 64.081 22.7745 64.0125 22.371C63.944 21.9597 63.8336 21.6027 63.6814 21.3001C63.5368 20.9975 63.3427 20.7647 63.0992 20.6017C62.8556 20.4388 62.555 20.3573 62.1973 20.3573C61.7863 20.3573 61.44 20.4232 61.1584 20.5552C60.8844 20.6793 60.6637 20.8733 60.4963 21.1371C60.3365 21.3932 60.2223 21.7152 60.1538 22.1032C60.0929 22.4835 60.0663 22.9297 60.0739 23.4418V24.3963C60.0587 24.986 60.1158 25.5059 60.2451 25.956C60.3745 26.3983 60.599 26.7436 60.9187 26.9919C61.2383 27.2402 61.6722 27.3644 62.2201 27.3644C62.5854 27.3644 62.8899 27.279 63.1334 27.1083C63.377 26.9298 63.571 26.6854 63.7156 26.375C63.8602 26.0568 63.963 25.6921 64.0239 25.2809C64.0848 24.8696 64.1152 24.4273 64.1152 23.9539Z" fill="#B0B0B0"/>
<path d="M69.1954 23.9889V23.7444C69.1954 22.821 69.3248 21.9713 69.5835 21.1953C69.8423 20.4116 70.2228 19.7326 70.7251 19.1584C71.2275 18.5842 71.8477 18.138 72.586 17.8198C73.3242 17.4939 74.1766 17.331 75.1432 17.331C76.1174 17.331 76.9736 17.4939 77.7118 17.8198C78.4577 18.138 79.0817 18.5842 79.5841 19.1584C80.0864 19.7326 80.4669 20.4116 80.7257 21.1953C80.9844 21.9713 81.1138 22.821 81.1138 23.7444V23.9889C81.1138 24.9045 80.9844 25.7542 80.7257 26.538C80.4669 27.3139 80.0864 27.9929 79.5841 28.5749C79.0817 29.1491 78.4615 29.5953 77.7232 29.9135C76.985 30.2316 76.1326 30.3907 75.166 30.3907C74.1994 30.3907 73.3432 30.2316 72.5974 29.9135C71.8515 29.5953 71.2275 29.1491 70.7251 28.5749C70.2228 27.9929 69.8423 27.3139 69.5835 26.538C69.3248 25.7542 69.1954 24.9045 69.1954 23.9889ZM73.0426 23.7444V23.9889C73.0426 24.4622 73.0769 24.9045 73.1454 25.3158C73.2139 25.7271 73.328 26.0879 73.4878 26.3983C73.6477 26.7009 73.8646 26.9376 74.1386 27.1083C74.4125 27.279 74.755 27.3644 75.166 27.3644C75.5694 27.3644 75.9043 27.279 76.1706 27.1083C76.4446 26.9376 76.6615 26.7009 76.8214 26.3983C76.9812 26.0879 77.0953 25.7271 77.1638 25.3158C77.2323 24.9045 77.2666 24.4622 77.2666 23.9889V23.7444C77.2666 23.2866 77.2323 22.8559 77.1638 22.4524C77.0953 22.0412 76.9812 21.6803 76.8214 21.3699C76.6615 21.0518 76.4446 20.8035 76.1706 20.625C75.8966 20.4465 75.5542 20.3573 75.1432 20.3573C74.7398 20.3573 74.4011 20.4465 74.1271 20.625C73.8608 20.8035 73.6477 21.0518 73.4878 21.3699C73.328 21.6803 73.2139 22.0412 73.1454 22.4524C73.0769 22.8559 73.0426 23.2866 73.0426 23.7444Z" fill="#B0B0B0"/>
<path d="M90.2695 12H93.3633C93.3633 12.5587 93.3062 13.0631 93.1921 13.5132C93.0779 13.9555 92.8648 14.3551 92.5528 14.712C92.2407 15.0612 91.7841 15.3677 91.1828 15.6316C90.5892 15.8877 89.8053 16.1049 88.8311 16.2834C88.207 16.4076 87.6819 16.621 87.2557 16.9236C86.8295 17.2262 86.487 17.6375 86.2282 18.1574C85.9771 18.6695 85.7982 19.3058 85.6917 20.0663C85.5927 20.8268 85.5547 21.7269 85.5775 22.7667V23.081L82.6322 23.6164V23.3021C82.6398 21.7424 82.773 20.3883 83.0317 19.2399C83.2905 18.0837 83.6596 17.1098 84.1391 16.3183C84.6262 15.5268 85.2122 14.8944 85.8972 14.4211C86.5821 13.9477 87.3508 13.614 88.2032 13.42C88.7436 13.2959 89.1622 13.1756 89.459 13.0592C89.7634 12.9428 89.9727 12.8031 90.0869 12.6402C90.2087 12.4772 90.2695 12.2638 90.2695 12ZM89.322 18.2621C90.1744 18.2621 90.9279 18.4096 91.5824 18.7045C92.2369 18.9993 92.7849 19.4145 93.2263 19.9499C93.6677 20.4853 94.0026 21.1177 94.2309 21.8472C94.4593 22.5688 94.5734 23.3564 94.5734 24.21V24.4545C94.5734 25.308 94.444 26.0995 94.1853 26.8289C93.9265 27.5506 93.546 28.1791 93.0437 28.7146C92.5414 29.25 91.9173 29.6651 91.1714 29.96C90.4332 30.2549 89.5808 30.4023 88.6142 30.4023C87.6476 30.4023 86.7914 30.2394 86.0456 29.9135C85.2997 29.5798 84.6718 29.1142 84.1619 28.5167C83.6596 27.9192 83.2791 27.2169 83.0203 26.4099C82.7615 25.6029 82.6322 24.7183 82.6322 23.7561V23.5116C82.6245 23.403 82.6892 23.3021 82.8262 23.209C82.9708 23.1081 83.1383 22.984 83.3285 22.8365C83.5264 22.6813 83.7015 22.4718 83.8537 22.208C84.394 21.2691 84.9458 20.5125 85.509 19.9383C86.0722 19.3563 86.6659 18.9334 87.2899 18.6695C87.914 18.3979 88.5914 18.2621 89.322 18.2621ZM88.5914 21.2885C88.051 21.2885 87.6248 21.4243 87.3128 21.6958C87.0083 21.9597 86.7914 22.3128 86.662 22.7551C86.5403 23.1974 86.4794 23.6824 86.4794 24.21V24.4545C86.4794 24.8657 86.5136 25.2498 86.5821 25.6068C86.6506 25.956 86.7648 26.2664 86.9246 26.538C87.0844 26.8018 87.3014 27.0074 87.5753 27.1549C87.8569 27.3023 88.2032 27.376 88.6142 27.376C89.0176 27.376 89.3563 27.3023 89.6302 27.1549C89.9042 27.0074 90.1211 26.8018 90.281 26.538C90.4408 26.2664 90.5549 25.956 90.6234 25.6068C90.6919 25.2498 90.7262 24.8657 90.7262 24.4545V24.21C90.7262 23.8143 90.6919 23.4418 90.6234 23.0926C90.5549 22.7357 90.4408 22.4253 90.281 22.1614C90.1211 21.8898 89.9004 21.6765 89.6188 21.5213C89.3448 21.3661 89.0024 21.2885 88.5914 21.2885Z" fill="#B0B0B0"/>
<path d="M99.9276 24.8735L103.33 17.5638H107.177V30.1579H103.33V22.8249L99.9276 30.1579H96.0689V17.5638H99.9276V24.8735Z" fill="#B0B0B0"/>
<path d="M122.828 25.8279L125.625 17.5638H128.605L124.118 30.1579H121.55L117.075 17.5638H120.066L122.828 25.8279ZM119.198 17.5638V30.1579H115.351V17.5638H119.198ZM126.607 30.1579V17.5638H130.454V30.1579H126.607Z" fill="#B0B0B0"/>
<path d="M137.098 17.5638V30.1579H133.24V17.5638H137.098ZM133.012 14.3163C133.012 13.7576 133.209 13.2998 133.605 12.9428C134.001 12.5859 134.515 12.4074 135.146 12.4074C135.778 12.4074 136.292 12.5859 136.687 12.9428C137.083 13.2998 137.281 13.7576 137.281 14.3163C137.281 14.875 137.083 15.3328 136.687 15.6898C136.292 16.0467 135.778 16.2252 135.146 16.2252C134.515 16.2252 134.001 16.0467 133.605 15.6898C133.209 15.3328 133.012 14.875 133.012 14.3163Z" fill="#B0B0B0"/>
<path d="M144.69 27.3644C145.048 27.3644 145.352 27.2984 145.603 27.1665C145.862 27.0268 146.056 26.8328 146.186 26.5845C146.323 26.3284 146.387 26.0219 146.38 25.665H149.999C150.006 26.6117 149.778 27.442 149.314 28.1559C148.857 28.862 148.233 29.413 147.441 29.8087C146.658 30.1967 145.771 30.3907 144.782 30.3907C143.815 30.3907 142.97 30.2316 142.247 29.9135C141.524 29.5876 140.919 29.1375 140.432 28.5633C139.953 27.9813 139.591 27.3023 139.347 26.5263C139.112 25.7503 138.994 24.9084 138.994 24.0005V23.7328C138.994 22.8249 139.112 21.983 139.347 21.207C139.591 20.4232 139.953 19.7443 140.432 19.17C140.919 18.5881 141.52 18.138 142.236 17.8198C142.959 17.4939 143.8 17.331 144.759 17.331C145.786 17.331 146.692 17.5288 147.476 17.9246C148.267 18.3203 148.888 18.8946 149.337 19.6473C149.786 20.4 150.006 21.3117 149.999 22.3826H146.38C146.387 22.0024 146.33 21.6609 146.209 21.3583C146.087 21.0557 145.897 20.8151 145.638 20.6366C145.387 20.4504 145.063 20.3573 144.667 20.3573C144.272 20.3573 143.952 20.4465 143.708 20.625C143.465 20.8035 143.278 21.0518 143.149 21.3699C143.027 21.6803 142.944 22.0373 142.898 22.4408C142.86 22.8443 142.841 23.275 142.841 23.7328V24.0005C142.841 24.4661 142.86 24.9045 142.898 25.3158C142.944 25.7193 143.031 26.0762 143.16 26.3866C143.29 26.6893 143.476 26.9298 143.72 27.1083C143.963 27.279 144.287 27.3644 144.69 27.3644Z" fill="#B0B0B0"/>
<path d="M158.561 17.5638V30.1579H154.702V17.5638H158.561ZM162.465 17.5638V20.5668H150.866V17.5638H162.465Z" fill="#B0B0B0"/>
<path d="M163.082 23.9889V23.7444C163.082 22.821 163.211 21.9713 163.47 21.1953C163.728 20.4116 164.109 19.7326 164.611 19.1584C165.114 18.5842 165.734 18.138 166.472 17.8198C167.21 17.4939 168.063 17.331 169.029 17.331C170.004 17.331 170.86 17.4939 171.598 17.8198C172.344 18.138 172.968 18.5842 173.47 19.1584C173.973 19.7326 174.353 20.4116 174.612 21.1953C174.871 21.9713 175 22.821 175 23.7444V23.9889C175 24.9045 174.871 25.7542 174.612 26.538C174.353 27.3139 173.973 27.9929 173.47 28.5749C172.968 29.1491 172.348 29.5953 171.609 29.9135C170.871 30.2316 170.019 30.3907 169.052 30.3907C168.086 30.3907 167.229 30.2316 166.484 29.9135C165.738 29.5953 165.114 29.1491 164.611 28.5749C164.109 27.9929 163.728 27.3139 163.47 26.538C163.211 25.7542 163.082 24.9045 163.082 23.9889ZM166.929 23.7444V23.9889C166.929 24.4622 166.963 24.9045 167.032 25.3158C167.1 25.7271 167.214 26.0879 167.374 26.3983C167.534 26.7009 167.751 26.9376 168.025 27.1083C168.299 27.279 168.641 27.3644 169.052 27.3644C169.456 27.3644 169.79 27.279 170.057 27.1083C170.331 26.9376 170.548 26.7009 170.708 26.3983C170.867 26.0879 170.982 25.7271 171.05 25.3158C171.119 24.9045 171.153 24.4622 171.153 23.9889V23.7444C171.153 23.2866 171.119 22.8559 171.05 22.4524C170.982 22.0412 170.867 21.6803 170.708 21.3699C170.548 21.0518 170.331 20.8035 170.057 20.625C169.783 20.4465 169.44 20.3573 169.029 20.3573C168.626 20.3573 168.287 20.4465 168.013 20.625C167.747 20.8035 167.534 21.0518 167.374 21.3699C167.214 21.6803 167.1 22.0412 167.032 22.4524C166.963 22.8559 166.929 23.2866 166.929 23.7444Z" fill="#B0B0B0"/>
<path d="M46.972 37.9027H50.2133L53.8967 49.1925L57.58 37.9027H60.8213L55.2113 54.1297H52.582L46.972 37.9027ZM45 37.9027H48.3547L48.978 50.3404V54.1297H45V37.9027ZM59.4387 37.9027H62.8047V54.1297H58.8153V50.3404L59.4387 37.9027Z" fill="#B0B0B0"/>
<path d="M71.5427 51.0983V46.1277C71.5427 45.7859 71.4936 45.4924 71.3953 45.2472C71.2971 45.002 71.1422 44.8126 70.9307 44.6788C70.7191 44.5377 70.4358 44.4671 70.0807 44.4671C69.7936 44.4671 69.548 44.5154 69.344 44.612C69.14 44.7085 68.9851 44.8534 68.8793 45.0466C68.7736 45.2398 68.7207 45.485 68.7207 45.7822H64.9013C64.9013 45.2249 65.026 44.7085 65.2753 44.233C65.5322 43.7501 65.8949 43.3303 66.3633 42.9737C66.8393 42.617 67.406 42.3421 68.0633 42.1489C68.7282 41.9483 69.4687 41.848 70.2847 41.848C71.2593 41.848 72.1282 42.0078 72.8913 42.3273C73.662 42.6467 74.2702 43.126 74.716 43.7649C75.1618 44.3965 75.3847 45.1915 75.3847 46.1499V51.0871C75.3847 51.8747 75.43 52.4728 75.5207 52.8815C75.6113 53.2827 75.7398 53.6356 75.906 53.9402V54.1297H72.0753C71.894 53.7582 71.758 53.305 71.6673 52.77C71.5842 52.2276 71.5427 51.6704 71.5427 51.0983ZM72.0073 46.7629L72.03 48.769H70.3413C69.9862 48.769 69.684 48.8173 69.4347 48.9139C69.1929 49.0105 68.9964 49.1442 68.8453 49.3151C68.7018 49.4786 68.596 49.6643 68.528 49.8723C68.4676 50.0804 68.4373 50.2996 68.4373 50.5299C68.4373 50.7528 68.4902 50.9534 68.596 51.1317C68.7093 51.3026 68.8604 51.4363 69.0493 51.5329C69.2382 51.6295 69.4498 51.6778 69.684 51.6778C70.1071 51.6778 70.466 51.5998 70.7607 51.4438C71.0629 51.2803 71.2933 51.0834 71.452 50.8531C71.6107 50.6228 71.69 50.4073 71.69 50.2067L72.5287 51.7447C72.3776 52.0419 72.2038 52.3428 72.0073 52.6474C71.8184 52.952 71.5804 53.2344 71.2933 53.4944C71.0138 53.747 70.67 53.9551 70.262 54.1185C69.854 54.2746 69.3591 54.3526 68.7773 54.3526C68.0218 54.3526 67.3267 54.2003 66.692 53.8956C66.0649 53.591 65.5624 53.1675 65.1847 52.6251C64.8069 52.0753 64.618 51.4438 64.618 50.7305C64.618 50.1064 64.7313 49.5491 64.958 49.0588C65.1922 48.5684 65.5436 48.1523 66.012 47.8105C66.4804 47.4688 67.0773 47.2087 67.8027 47.0304C68.528 46.8521 69.3818 46.7629 70.364 46.7629H72.0073Z" fill="#B0B0B0"/>
<path d="M81.3573 37V54.1297H77.538V37H81.3573ZM89.2 42.0709L83.8733 48.2118L81.0853 50.9534L79.4193 48.5684L81.7427 45.5927L84.6213 42.0709H89.2ZM85.1087 54.1297L81.8333 48.6353L84.6553 46.6626L89.4833 54.1297H85.1087Z" fill="#B0B0B0"/>
<path d="M95.9093 54.3526C94.912 54.3526 94.0204 54.2003 93.2347 53.8956C92.4489 53.5836 91.784 53.1564 91.24 52.614C90.7036 52.0716 90.2918 51.4475 90.0047 50.7416C89.7251 50.0358 89.5853 49.2891 89.5853 48.5015V48.078C89.5853 47.1939 89.71 46.3766 89.9593 45.6261C90.2087 44.8683 90.5789 44.207 91.07 43.6424C91.5611 43.0777 92.1769 42.6393 92.9173 42.3273C93.6578 42.0078 94.5191 41.848 95.5013 41.848C96.3702 41.848 97.1484 41.9855 97.836 42.2604C98.5236 42.5353 99.1053 42.9291 99.5813 43.4417C100.065 43.9544 100.431 44.5748 100.681 45.3029C100.938 46.0311 101.066 46.8484 101.066 47.7548V49.2817H91.0473V46.9301H97.3373V46.6403C97.3449 46.2391 97.2731 45.8973 97.122 45.615C96.9784 45.3327 96.7669 45.1172 96.4873 44.9686C96.2078 44.82 95.8678 44.7457 95.4673 44.7457C95.0518 44.7457 94.708 44.8349 94.436 45.0132C94.1716 45.1915 93.9638 45.4367 93.8127 45.7487C93.6691 46.0534 93.5671 46.4063 93.5067 46.8075C93.4462 47.2087 93.416 47.6322 93.416 48.078V48.5015C93.416 48.9473 93.4764 49.3522 93.5973 49.7163C93.7258 50.0804 93.9071 50.3924 94.1413 50.6525C94.3831 50.9051 94.6702 51.102 95.0027 51.2432C95.3427 51.3843 95.728 51.4549 96.1587 51.4549C96.68 51.4549 97.1938 51.3583 97.7 51.1651C98.2062 50.972 98.6407 50.6525 99.0033 50.2067L100.737 52.2351C100.488 52.5843 100.133 52.9223 99.672 53.2492C99.2187 53.5762 98.6747 53.8436 98.04 54.0517C97.4053 54.2523 96.6951 54.3526 95.9093 54.3526Z" fill="#B0B0B0"/>
<path d="M114.768 51.0983V46.1277C114.768 45.7859 114.719 45.4924 114.621 45.2472C114.522 45.002 114.368 44.8126 114.156 44.6788C113.944 44.5377 113.661 44.4671 113.306 44.4671C113.019 44.4671 112.773 44.5154 112.569 44.612C112.365 44.7085 112.21 44.8534 112.105 45.0466C111.999 45.2398 111.946 45.485 111.946 45.7822H108.127C108.127 45.2249 108.251 44.7085 108.501 44.233C108.758 43.7501 109.12 43.3303 109.589 42.9737C110.065 42.617 110.631 42.3421 111.289 42.1489C111.954 41.9483 112.694 41.848 113.51 41.848C114.485 41.848 115.354 42.0078 116.117 42.3273C116.887 42.6467 117.496 43.126 117.941 43.7649C118.387 44.3965 118.61 45.1915 118.61 46.1499V51.0871C118.61 51.8747 118.655 52.4728 118.746 52.8815C118.837 53.2827 118.965 53.6356 119.131 53.9402V54.1297H115.301C115.119 53.7582 114.983 53.305 114.893 52.77C114.81 52.2276 114.768 51.6704 114.768 51.0983ZM115.233 46.7629L115.255 48.769H113.567C113.212 48.769 112.909 48.8173 112.66 48.9139C112.418 49.0105 112.222 49.1442 112.071 49.3151C111.927 49.4786 111.821 49.6643 111.753 49.8723C111.693 50.0804 111.663 50.2996 111.663 50.5299C111.663 50.7528 111.716 50.9534 111.821 51.1317C111.935 51.3026 112.086 51.4363 112.275 51.5329C112.464 51.6295 112.675 51.6778 112.909 51.6778C113.332 51.6778 113.691 51.5998 113.986 51.4438C114.288 51.2803 114.519 51.0834 114.677 50.8531C114.836 50.6228 114.915 50.4073 114.915 50.2067L115.754 51.7447C115.603 52.0419 115.429 52.3428 115.233 52.6474C115.044 52.952 114.806 53.2344 114.519 53.4944C114.239 53.747 113.895 53.9551 113.487 54.1185C113.079 54.2746 112.584 54.3526 112.003 54.3526C111.247 54.3526 110.552 54.2003 109.917 53.8956C109.29 53.591 108.788 53.1675 108.41 52.6251C108.032 52.0753 107.843 51.4438 107.843 50.7305C107.843 50.1064 107.957 49.5491 108.183 49.0588C108.418 48.5684 108.769 48.1523 109.237 47.8105C109.706 47.4688 110.303 47.2087 111.028 47.0304C111.753 46.8521 112.607 46.7629 113.589 46.7629H115.233Z" fill="#B0B0B0"/>
<path d="M131.689 51.4549C132.044 51.4549 132.346 51.3918 132.595 51.2655C132.852 51.1317 133.045 50.946 133.173 50.7082C133.309 50.463 133.374 50.1695 133.366 49.8278H136.959C136.966 50.7342 136.74 51.5292 136.279 52.2128C135.825 52.8889 135.206 53.4164 134.42 53.7953C133.642 54.1668 132.762 54.3526 131.779 54.3526C130.82 54.3526 129.981 54.2003 129.263 53.8956C128.546 53.5836 127.945 53.1527 127.461 52.6028C126.985 52.0456 126.626 51.3955 126.385 50.6525C126.15 49.9095 126.033 49.1033 126.033 48.234V47.9777C126.033 47.1084 126.15 46.3023 126.385 45.5593C126.626 44.8088 126.985 44.1587 127.461 43.6089C127.945 43.0517 128.542 42.6207 129.252 42.3161C129.97 42.0041 130.805 41.848 131.757 41.848C132.777 41.848 133.676 42.0375 134.454 42.4164C135.24 42.7953 135.856 43.3452 136.301 44.0659C136.747 44.7866 136.966 45.6596 136.959 46.6849H133.366C133.374 46.3208 133.317 45.9939 133.196 45.7042C133.075 45.4144 132.886 45.1841 132.629 45.0132C132.38 44.8349 132.059 44.7457 131.666 44.7457C131.273 44.7457 130.956 44.8311 130.714 45.002C130.472 45.1729 130.287 45.4107 130.159 45.7153C130.038 46.0125 129.955 46.3543 129.909 46.7406C129.872 47.127 129.853 47.5393 129.853 47.9777V48.234C129.853 48.6798 129.872 49.0996 129.909 49.4934C129.955 49.8798 130.042 50.2215 130.17 50.5187C130.298 50.8085 130.484 51.0388 130.725 51.2097C130.967 51.3732 131.288 51.4549 131.689 51.4549Z" fill="#B0B0B0"/>
<path d="M142.625 42.0709V54.1297H138.795V42.0709H142.625ZM138.568 38.9615C138.568 38.4265 138.764 37.9882 139.157 37.6464C139.55 37.3046 140.06 37.1337 140.687 37.1337C141.314 37.1337 141.824 37.3046 142.217 37.6464C142.61 37.9882 142.807 38.4265 142.807 38.9615C142.807 39.4965 142.61 39.9348 142.217 40.2766C141.824 40.6184 141.314 40.7893 140.687 40.7893C140.06 40.7893 139.55 40.6184 139.157 40.2766C138.764 39.9348 138.568 39.4965 138.568 38.9615Z" fill="#B0B0B0"/>
<path d="M151.443 42.0709V44.6788H144.053V42.0709H151.443ZM145.606 39.0729H149.425V50.1955C149.425 50.515 149.463 50.7639 149.539 50.9422C149.614 51.1131 149.743 51.2357 149.924 51.31C150.113 51.3769 150.362 51.4103 150.672 51.4103C150.891 51.4103 151.072 51.4066 151.216 51.3992C151.36 51.3843 151.496 51.3658 151.624 51.3435V54.0294C151.299 54.1334 150.959 54.2114 150.604 54.2634C150.249 54.3229 149.871 54.3526 149.471 54.3526C148.655 54.3526 147.956 54.2263 147.374 53.9737C146.8 53.721 146.362 53.3235 146.059 52.7812C145.757 52.2388 145.606 51.5329 145.606 50.6636V39.0729Z" fill="#B0B0B0"/>
<path d="M156.724 52.7143L159.897 42.0709H164L159.07 55.924C158.964 56.2286 158.824 56.5556 158.651 56.9048C158.477 57.2614 158.239 57.5995 157.937 57.9189C157.634 58.2384 157.245 58.4985 156.769 58.6991C156.301 58.8997 155.719 59 155.024 59C154.654 59 154.382 58.9814 154.208 58.9443C154.042 58.9146 153.785 58.8588 153.437 58.7771V56.0912C153.536 56.0912 153.619 56.0912 153.687 56.0912C153.762 56.0912 153.845 56.0912 153.936 56.0912C154.344 56.0912 154.669 56.0503 154.911 55.9686C155.16 55.8869 155.349 55.768 155.477 55.612C155.613 55.4559 155.719 55.2665 155.795 55.0436L156.724 52.7143ZM155.919 42.0709L158.333 50.5076L158.753 54.4863H156.191L151.828 42.0709H155.919Z" fill="#B0B0B0"/>
<g clip-path="url(#clip0_2_1831)">
<path d="M35.9138 37.5549C35.4 31.146 33.649 24.4896 30.2027 22.8633C30.0304 21.2983 29.3713 19.8239 28.3154 18.6411C28.4872 18.5152 28.6265 18.3512 28.7218 18.1624C28.8171 17.9736 28.8659 17.7654 28.8641 17.5546C28.8641 16.6848 27.9728 16.0659 26.2078 15.6945C26.2114 15.6338 26.2114 15.573 26.2078 15.5123C26.2078 14.1095 24.3274 13.5663 22.6882 13.3634L21.6012 2.91802C21.5989 2.64446 21.4862 2.38301 21.2879 2.19118C21.0896 1.99935 20.822 1.89287 20.5439 1.89515C20.2658 1.89743 20 2.00828 19.805 2.20334C19.61 2.39839 19.5018 2.66165 19.5041 2.93522L18.6093 13.3703C16.9841 13.58 15.1457 14.1233 15.1457 15.5123C15.1452 15.6106 15.1558 15.7086 15.1771 15.8046C13.7266 16.1828 12.9892 16.7673 12.9892 17.5546C12.9868 17.7835 13.055 18.0077 13.1849 18.1976C12.3635 18.8852 11.9441 20.649 11.5317 23.5234C8.57128 25.2941 6.48119 29.1621 6.36235 33.68C5.31381 34.2473 4.56235 35.963 3.91575 39.0402C3.27882 42.4827 2.97223 45.9764 3.00002 49.4753H5.09711C5.09711 42.8051 6.29944 37.0082 7.21867 35.7017C7.59964 36.3653 8.37206 38.8236 8.37206 47.8731H10.4691C10.4691 47.433 10.4691 47.0101 10.4691 46.594C10.4433 44.8689 10.7667 43.1559 11.4205 41.5549C12.0744 39.9539 13.0455 38.4969 14.2775 37.2688C15.5094 36.0407 16.9775 35.0661 18.5961 34.4017C20.2148 33.7373 21.9517 33.3964 23.7056 33.3989C25.4595 33.4014 27.1954 33.7473 28.8121 34.4163C30.4287 35.0853 31.8939 36.0642 33.1222 37.2958C34.3505 38.5274 35.3174 39.9872 35.9665 41.59C36.6155 43.1929 36.9339 44.9068 36.9029 46.6319H39C39.0033 43.3564 37.9197 40.1693 35.9138 37.5549V37.5549ZM32.167 29.004C31.468 27.3983 30.5138 26.1502 29.2136 26.1502C26.9068 26.1502 26.3581 28.5261 25.8618 31.6721C25.5682 31.6274 25.2711 31.5964 24.9705 31.5689C25.2781 27.0132 26.9662 24.5618 28.5705 24.5618C29.6051 24.5618 31.0346 25.8511 32.167 29.004ZM31.3317 33.5562C30.2577 32.9394 29.1109 32.4544 27.9169 32.1122C28.1965 30.314 28.581 28.2751 29.1857 28.2132C29.6505 28.416 30.6571 30.1867 31.3317 33.5562V33.5562ZM22.4365 18.0841C23.7483 18.0856 25.0197 18.5305 26.0377 19.3442C27.0558 20.1579 27.7587 21.2911 28.0288 22.5538C27.7507 22.5906 27.4776 22.6575 27.2144 22.7533C26.9645 21.6794 26.3518 20.7207 25.4763 20.0337C24.6009 19.3468 23.5144 18.9722 22.3946 18.9712C21.2541 18.96 20.1465 19.3465 19.2681 20.0621C18.3897 20.7777 17.7972 21.7762 17.5958 22.8805C17.3721 22.8117 17.1414 22.7533 16.8967 22.7051C17.1021 21.4079 17.7745 20.2265 18.7914 19.3764C19.8084 18.5262 21.102 18.0639 22.4365 18.0738V18.0841ZM19.6055 23.7813C19.6022 23.4192 19.6723 23.0601 19.8116 22.7249C19.951 22.3897 20.1569 22.0852 20.4172 21.8292C20.6774 21.5731 20.987 21.3706 21.3277 21.2335C21.6684 21.0964 22.0335 21.0275 22.4016 21.0307C23.1559 21.0316 23.879 21.3268 24.4123 21.8514C24.9457 22.3761 25.2457 23.0874 25.2466 23.8294V24.2008C24.3728 25.2322 23.7053 26.7176 23.2928 28.5433C22.6251 26.6081 21.3327 24.9408 19.6125 23.795L19.6055 23.7813ZM14.146 20.9929C14.2229 21.4673 14.2893 22.0243 14.3488 22.5676C14.1705 22.5882 13.9992 22.6192 13.814 22.6535C13.9363 21.9281 14.0447 21.3883 14.146 20.9929ZM15.1946 24.5755C18.7282 24.5755 21.3915 27.4636 21.8913 31.6239L21.3845 31.6892C20.9161 28.0069 18.5255 25.4523 15.3519 25.4523C12.1783 25.4523 9.57089 28.7117 9.30526 33.0164H8.53634C8.91033 28.251 11.7379 24.5618 15.1806 24.5618L15.1946 24.5755ZM11.5736 32.9923H11.3884C11.5876 30.5134 12.755 28.4332 14.2649 27.749C12.7165 28.9283 11.8393 30.9225 11.5736 32.9923ZM13.5868 34.2026C13.6357 30.9122 15.2505 28.7014 17.6587 28.7014C17.7592 28.7031 17.8595 28.71 17.9592 28.722C18.7508 29.6914 19.2227 30.8753 19.3119 32.1156C17.3511 32.6901 15.5278 33.6466 13.9503 34.9281C13.8512 34.6762 13.7295 34.4334 13.5868 34.2026V34.2026ZM10.1511 39.5319C9.9379 37.407 9.62334 35.9836 9.2144 35.0622H11.5387C11.7064 35.0622 12.0245 35.4816 12.2552 36.5647C11.4352 37.467 10.7287 38.4633 10.1511 39.5319V39.5319Z" fill="#B0B0B0"/>
<path d="M24.1526 37.8402C21.7708 37.8439 19.4877 38.7765 17.8038 40.4336C16.12 42.0906 15.1728 44.337 15.17 46.68V53.6871H17.2671V46.6731C17.2465 45.7705 17.4093 44.873 17.7461 44.0332C18.083 43.1934 18.587 42.4283 19.2285 41.7828C19.8701 41.1373 20.6364 40.6244 21.4822 40.2742C22.3281 39.9241 23.2366 39.7437 24.1543 39.7437C25.072 39.7437 25.9805 39.9241 26.8264 40.2742C27.6723 40.6244 28.4385 41.1373 29.0801 41.7828C29.7217 42.4283 30.2257 43.1934 30.5625 44.0332C30.8993 44.873 31.0622 45.7705 31.0415 46.6731V54H33.1386V46.6731C33.134 44.3307 32.1855 42.0856 30.5011 40.4299C28.8167 38.7742 26.5338 37.843 24.1526 37.8402V37.8402Z" fill="#B0B0B0"/>
</g>
<defs>
<clipPath id="clip0_2_1831">
<rect width="36" height="52" fill="white" transform="translate(3 2)"/>
</clipPath>
</defs>
</svg>
