<svg version="1.2" xmlns="http://www.w3.org/2000/svg" viewBox="0 0 188 61" width="166" height="61">
	<title>Logo-gray-makeacity-svg</title>
	<defs>
		<clipPath clipPathUnits="userSpaceOnUse" id="cp1">
			<path d="m4 2h36v52h-36z"/>
		</clipPath>
	</defs>
	<style>
		.s0 { fill: #b0b0b0 } 
	</style>
	<path id="З" class="s0" aria-label="З"  d="m54.6 17.7q0-0.8-0.6-1.3-0.7-0.5-1.7-0.5-1 0-1.6 0.5-0.6 0.4-0.6 1.2h-4.1q0-1.4 0.8-2.5 0.8-1.1 2.2-1.8 1.5-0.6 3.3-0.6 3 0 4.7 1.3 1.7 1.3 1.7 3.6 0 1.1-0.7 2.1-0.7 1-1.9 1.5 1.4 0.5 2.1 1.5 0.8 1 0.8 2.5 0 2.3-1.8 3.7-1.9 1.3-4.9 1.3-2.8 0-4.7-1.3-1.9-1.3-1.9-3.6h4.2q0 0.7 0.6 1.3 0.7 0.5 1.8 0.5 1.1 0 1.8-0.6 0.8-0.5 0.8-1.4 0-1.2-0.7-1.8-0.6-0.5-1.7-0.5h-2.2v-3h2.3q2-0.1 2-2.1z"/>
	<path id="Layer" fill-rule="evenodd" class="s0" d="m65.4 35h-3.9v-17.4h3.6l0.1 1.1q0.5-0.5 1-0.9 0.8-0.5 2-0.5 1.1 0 2 0.5 0.9 0.4 1.5 1.3 0.6 0.8 1 2 0.3 1.2 0.3 2.6v0.3q0 1.3-0.3 2.5-0.4 1.2-1 2.1-0.6 0.8-1.5 1.3-0.9 0.5-2 0.5-1.1 0-1.9-0.5-0.5-0.3-0.9-0.8zm3.7-11v-0.3q0-0.7-0.1-1.3-0.1-0.6-0.3-1.1-0.2-0.4-0.6-0.7-0.4-0.2-0.9-0.2-0.6 0-1 0.2-0.5 0.2-0.7 0.6-0.2 0.4-0.3 0.9-0.1 0.6-0.1 1.4v0.9q0 0.9 0.1 1.6 0.2 0.7 0.7 1 0.5 0.4 1.3 0.4 0.6 0 0.9-0.3 0.4-0.2 0.6-0.7 0.2-0.5 0.3-1.1 0.1-0.6 0.1-1.3z"/>
	<path id="Layer" fill-rule="evenodd" class="s0" d="m74.2 24v-0.3q0-1.3 0.4-2.5 0.4-1.2 1.1-2 0.8-0.9 1.9-1.4 1.1-0.5 2.5-0.5 1.5 0 2.6 0.5 1.1 0.5 1.9 1.4 0.7 0.8 1.1 2 0.4 1.2 0.4 2.5v0.3q0 1.4-0.4 2.5-0.4 1.2-1.1 2.1-0.8 0.8-1.9 1.3-1.1 0.5-2.5 0.5-1.5 0-2.6-0.5-1.1-0.5-1.9-1.3-0.7-0.9-1.1-2.1-0.4-1.1-0.4-2.5zm3.8-0.3v0.3q0 0.7 0.1 1.3 0.1 0.6 0.4 1.1 0.2 0.5 0.6 0.7 0.4 0.3 1.1 0.3 0.6 0 1-0.3 0.4-0.2 0.6-0.7 0.3-0.5 0.4-1.1 0.1-0.6 0.1-1.3v-0.3q0-0.6-0.1-1.2-0.1-0.7-0.4-1.1-0.2-0.5-0.6-0.8-0.4-0.2-1.1-0.2-0.6 0-1 0.2-0.4 0.3-0.6 0.8-0.3 0.4-0.4 1.1-0.1 0.6-0.1 1.2z"/>
	<path id="Layer" fill-rule="evenodd" class="s0" d="m95.3 12h3.1q0 0.8-0.2 1.5-0.2 0.7-0.6 1.2-0.5 0.5-1.4 0.9-0.9 0.4-2.4 0.7-0.9 0.2-1.5 0.6-0.7 0.5-1.1 1.3-0.3 0.6-0.4 1.5 0.7-0.7 1.5-1 0.9-0.4 2-0.4 1.3 0 2.3 0.4 1 0.4 1.6 1.2 0.7 0.9 1 1.9 0.4 1.1 0.4 2.4v0.3q0 1.2-0.4 2.3-0.4 1.1-1.2 1.9-0.7 0.8-1.8 1.3-1.1 0.4-2.6 0.4-1.4 0-2.6-0.5-1.1-0.5-1.8-1.4-0.8-0.9-1.2-2.1-0.4-1.2-0.4-2.6v-0.3q0 0 0 0v-0.2q0-2.3 0.4-4.1 0.4-1.7 1.1-2.9 0.8-1.2 1.8-1.9 1-0.7 2.3-1 0.8-0.2 1.3-0.3 0.4-0.2 0.6-0.5 0.2-0.2 0.2-0.6zm-1.7 9.3q-0.8 0-1.3 0.4-0.4 0.4-0.6 1.1-0.2 0.6-0.2 1.4v0.3q0 0.6 0.1 1.1 0.1 0.5 0.3 0.9 0.3 0.4 0.7 0.7 0.4 0.2 1 0.2 0.6 0 1-0.2 0.4-0.3 0.7-0.7 0.2-0.4 0.3-0.9 0.1-0.5 0.1-1.1v-0.3q0-0.6-0.1-1.1-0.1-0.5-0.3-0.9-0.3-0.4-0.7-0.7-0.4-0.2-1-0.2z"/>
	<path id="Layer" class="s0" d="m104.9 24.9l3.4-7.3h3.9v12.6h-3.9v-7.4l-3.4 7.4h-3.8v-12.6h3.8z"/>
	<path id="Layer" class="s0" d="m127.8 25.8l2.8-8.2h3l-4.5 12.6h-2.5l-4.5-12.6h3zm-3.7-8.3v12.6h-3.8v-12.6zm7.4 12.6v-12.6h3.8v12.6z"/>
	<path id="Layer" class="s0" d="m142.1 17.6v12.6h-3.9v-12.6zm-4-3.3q0-0.8 0.5-1.4 0.6-0.5 1.6-0.5 0.9 0 1.5 0.5 0.6 0.6 0.6 1.4 0 0.9-0.6 1.4-0.6 0.5-1.5 0.5-1 0-1.6-0.5-0.5-0.5-0.5-1.4z"/>
	<path id="Layer" class="s0" d="m149.7 27.4q0.5 0 0.9-0.2 0.4-0.2 0.6-0.6 0.2-0.4 0.2-0.9h3.6q0 1.4-0.7 2.5-0.7 1-1.9 1.6-1.1 0.6-2.6 0.6-1.5 0-2.6-0.5-1-0.5-1.8-1.3-0.7-0.9-1.1-2.1-0.3-1.1-0.3-2.5v-0.3q0-1.3 0.3-2.5 0.4-1.2 1.1-2 0.8-0.9 1.8-1.4 1.1-0.5 2.6-0.5 1.5 0 2.7 0.6 1.2 0.6 1.8 1.7 0.7 1.2 0.7 2.8h-3.6q0-0.6-0.2-1-0.2-0.5-0.6-0.8-0.3-0.2-0.9-0.2-0.6 0-1 0.2-0.4 0.3-0.6 0.8-0.1 0.4-0.2 1-0.1 0.6-0.1 1.3v0.3q0 0.7 0.1 1.3 0.1 0.6 0.3 1.1 0.2 0.4 0.5 0.7 0.4 0.3 1 0.3z"/>
	<path id="Layer" class="s0" d="m163.6 17.6v12.6h-3.9v-12.6zm3.9 0v3h-11.6v-3z"/>
	<path id="Layer" fill-rule="evenodd" class="s0" d="m168.1 24v-0.3q0-1.3 0.4-2.5 0.4-1.2 1.1-2 0.8-0.9 1.9-1.4 1.1-0.5 2.5-0.5 1.5 0 2.6 0.5 1.1 0.5 1.9 1.4 0.7 0.8 1.1 2 0.4 1.2 0.4 2.5v0.3q0 1.4-0.4 2.5-0.4 1.2-1.1 2.1-0.8 0.8-1.9 1.3-1.1 0.5-2.5 0.5-1.5 0-2.6-0.5-1.1-0.5-1.9-1.3-0.7-0.9-1.1-2.1-0.4-1.1-0.4-2.5zm3.8-0.3v0.3q0 0.7 0.1 1.3 0.1 0.6 0.4 1.1 0.2 0.5 0.6 0.7 0.4 0.3 1.1 0.3 0.6 0 1-0.3 0.4-0.2 0.6-0.7 0.2-0.5 0.4-1.1 0.1-0.6 0.1-1.3v-0.3q0-0.6-0.1-1.2-0.2-0.7-0.4-1.1-0.2-0.5-0.6-0.8-0.5-0.2-1.1-0.2-0.6 0-1 0.2-0.4 0.3-0.6 0.8-0.3 0.4-0.4 1.1-0.1 0.6-0.1 1.2z"/>
	<path id="Layer" class="s0" d="m48 37.9h3.2l3.7 11.3 3.7-11.3h3.2l-5.6 16.2h-2.6zm-2 0h3.4l0.6 12.5v3.8h-4zm14.4 0h3.4v16.2h-4v-3.8z"/>
	<path id="Layer" class="s0" d="m72.5 51.1v-5q0-0.5-0.1-0.9-0.2-0.3-0.5-0.5-0.3-0.2-0.8-0.2-0.4 0-0.8 0.1-0.3 0.2-0.4 0.4-0.2 0.3-0.2 0.8h-3.8q0-0.9 0.4-1.6 0.4-0.7 1.1-1.2 0.7-0.6 1.7-0.9 1-0.3 2.2-0.3 1.4 0 2.6 0.5 1.1 0.5 1.8 1.5 0.7 0.9 0.7 2.3v5q0 1.2 0.1 1.8 0.2 0.6 0.4 1v0.2h-3.8q-0.3-0.5-0.4-1.3-0.2-0.8-0.2-1.7zm0.5-4.3v2h-1.7q-0.5 0-0.9 0.1-0.3 0.2-0.6 0.4-0.2 0.3-0.3 0.6-0.1 0.3-0.1 0.6 0 0.4 0.2 0.6 0.2 0.3 0.4 0.4 0.3 0.2 0.7 0.2 0.6 0 1.1-0.3 0.4-0.2 0.7-0.5 0.2-0.4 0.2-0.7l0.8 1.5q-0.2 0.5-0.5 0.9-0.3 0.5-0.7 0.9-0.4 0.4-1 0.6-0.6 0.3-1.5 0.3-1.2 0-2.1-0.5-0.9-0.5-1.5-1.3-0.6-0.8-0.6-1.9 0-0.9 0.4-1.6 0.3-0.8 1-1.3 0.7-0.5 1.8-0.8 1.1-0.2 2.6-0.2z"/>
	<path id="Layer" class="s0" d="m82.4 37v17.1h-3.9v-17.1zm7.9 5.1l-5.3 6.1-2.8 2.8-1.7-2.4 2.3-3 2.9-3.5zm-4.1 12l-3.3-5.5 2.9-1.9 4.8 7.4z"/>
	<path id="Layer" class="s0" d="m96.9 54.4q-1.5 0-2.7-0.5-1.1-0.5-2-1.3-0.8-0.8-1.2-1.9-0.4-1-0.4-2.2v-0.4q0-1.3 0.4-2.5 0.3-1.1 1.1-2 0.7-0.8 1.8-1.3 1.1-0.5 2.6-0.5 1.3 0 2.3 0.5 1.1 0.4 1.8 1.1 0.7 0.8 1.1 1.9 0.4 1.1 0.4 2.5v1.5h-10.1v-2.4h6.3v-0.3q0-0.6-0.2-1-0.2-0.4-0.6-0.6-0.4-0.3-1-0.3-0.7 0-1.1 0.3-0.4 0.3-0.6 0.7-0.2 0.5-0.3 1.1-0.1 0.6-0.1 1.3v0.4q0 0.7 0.2 1.2 0.2 0.6 0.5 1 0.4 0.3 0.9 0.5 0.5 0.3 1.2 0.3 0.7 0 1.5-0.3 0.8-0.3 1.3-1l1.7 2q-0.3 0.6-1 1-0.7 0.5-1.7 0.9-0.9 0.3-2.1 0.3z"/>
	<path id="Layer" class="s0" d="m149.7 51.5q0.5 0 0.9-0.2 0.4-0.2 0.6-0.6 0.2-0.4 0.2-0.9h3.6q0 1.4-0.7 2.4-0.7 1-1.9 1.6-1.1 0.6-2.6 0.6-1.5 0-2.5-0.5-1.1-0.5-1.8-1.3-0.8-0.8-1.1-1.9-0.4-1.2-0.4-2.5v-0.2q0-1.3 0.4-2.4 0.3-1.2 1.1-2 0.7-0.8 1.8-1.3 1-0.5 2.5-0.5 1.5 0 2.7 0.6 1.1 0.6 1.8 1.7 0.7 1 0.7 2.6h-3.6q0-0.6-0.2-1-0.2-0.4-0.6-0.7-0.3-0.3-0.9-0.3-0.6 0-1 0.3-0.3 0.3-0.5 0.7-0.2 0.5-0.3 1 0 0.6 0 1.3v0.2q0 0.7 0 1.3 0.1 0.6 0.3 1 0.2 0.5 0.5 0.7 0.4 0.3 1 0.3z"/>
	<path id="Layer" class="s0" d="m160.6 42.1v12h-3.8v-12zm-4.1-3.1q0-0.8 0.6-1.4 0.6-0.5 1.6-0.5 0.9 0 1.5 0.5 0.6 0.6 0.6 1.4 0 0.8-0.6 1.3-0.6 0.5-1.5 0.5-1 0-1.6-0.5-0.6-0.5-0.6-1.3z"/>
	<path id="the" class="s0" aria-label="the"  d="m108.6 39.5h3.6v2.9h1.9v2.5h-1.9v5.3q0 0.7 0.3 0.9 0.2 0.3 0.9 0.3 0.5 0 0.9-0.1v2.6q-1 0.3-2 0.3-1.9 0-2.8-0.9-0.9-0.8-0.9-2.6v-5.8h-1.5v-2.5h1.5zm10.5-2v6.1q1.2-1.4 3-1.4 1.9 0 2.9 1.1 0.9 1.1 1 3.4v7.3h-3.7v-7.3q0-0.9-0.3-1.3-0.4-0.5-1.3-0.5-1.1 0-1.6 0.8v8.3h-3.6v-16.5zm14.5 16.7q-2.7 0-4.3-1.6-1.7-1.6-1.7-4.1v-0.3q0-1.8 0.7-3.2 0.6-1.4 1.9-2.1 1.3-0.7 3-0.7 2.5 0 3.9 1.5 1.4 1.5 1.4 4.2v1.4h-7.2q0.2 1 0.8 1.6 0.7 0.5 1.7 0.5 1.8 0 2.7-1.2l1.7 2q-0.7 0.9-1.9 1.5-1.3 0.5-2.7 0.5zm-0.4-9.3q-1.6 0-1.9 2.2h3.6v-0.3q0.1-0.9-0.4-1.4-0.5-0.5-1.3-0.5z"/>
	<path id="Layer" class="s0" d="m169.4 42.1v2.6h-7.3v-2.6zm-5.9-3h3.8v11.1q0 0.5 0.1 0.7 0.2 0.3 0.4 0.4 0.3 0.1 0.8 0.1 0.3 0 0.5 0 0.2 0 0.4-0.1v2.7q-0.5 0.2-1 0.3-0.5 0.1-1.1 0.1-1.2 0-2.1-0.4-0.9-0.4-1.3-1.2-0.5-0.8-0.5-2.1z"/>
	<path id="Layer" class="s0" d="m174.7 52.7l3.2-10.6h4.1l-4.9 13.8q-0.2 0.5-0.4 1-0.3 0.5-0.8 1-0.4 0.5-1.1 0.8-0.7 0.3-1.8 0.3-0.5 0-0.8-0.1-0.2 0-0.8-0.1v-2.7q0.2 0 0.3 0 0.1 0 0.2 0 0.6 0 1-0.1 0.4-0.2 0.6-0.4 0.2-0.2 0.3-0.6zm-0.8-10.6l2.4 8.4 0.4 4h-2.5l-4.4-12.4z"/>
	<g id="Clip-Path" clip-path="url(#cp1)">
		<g id="Layer">
			<path id="Layer" fill-rule="evenodd" class="s0" d="m40 46.6h-2.1c0-1.7-0.3-3.4-0.9-5-0.7-1.6-1.6-3.1-2.9-4.3-1.2-1.2-2.7-2.2-4.3-2.9-1.6-0.7-3.3-1-5.1-1-1.7 0-3.5 0.3-5.1 1-1.6 0.7-3.1 1.6-4.3 2.9-1.3 1.2-2.2 2.7-2.9 4.3-0.6 1.6-1 3.3-0.9 5q0 0.6 0 1.3h-2.1c0-9.1-0.8-11.5-1.2-12.2-0.9 1.3-2.1 7.1-2.1 13.8h-2.1q0-5.3 0.9-10.5c0.7-3 1.4-4.8 2.5-5.3 0.1-4.5 2.2-8.4 5.1-10.2 0.4-2.9 0.9-4.6 1.7-5.3q-0.2-0.3-0.2-0.6 0-1.2 2.2-1.8-0.1-0.1-0.1-0.3c0-1.4 1.9-1.9 3.5-2.1l0.9-10.5q0-0.4 0.3-0.7c0.2-0.2 0.5-0.3 0.7-0.3 0.3 0 0.6 0.1 0.8 0.3q0.3 0.3 0.3 0.7l1.1 10.5c1.6 0.2 3.5 0.7 3.5 2.1q0 0.1 0 0.2 2.7 0.6 2.7 1.9 0 0.3-0.2 0.6-0.1 0.2-0.4 0.4c1.1 1.2 1.7 2.7 1.9 4.3 3.4 1.6 5.2 8.2 5.7 14.7 2 2.6 3.1 5.8 3.1 9zm-10.4-22c-1.6 0-3.3 2.4-3.6 7q0.4 0 0.9 0.1c0.5-3.2 1-5.5 3.3-5.5 1.3 0 2.3 1.2 3 2.8-1.2-3.1-2.6-4.4-3.6-4.4zm0.6 3.6c-0.6 0.1-1 2.1-1.3 3.9q1.8 0.5 3.4 1.5c-0.6-3.4-1.6-5.2-2.1-5.4zm-6.8-10.1c-1.3 0-2.6 0.4-3.6 1.3-1 0.8-1.7 2-1.9 3.3q0.4 0.1 0.7 0.2c0.2-1.1 0.8-2.1 1.7-2.8 0.8-0.8 2-1.1 3.1-1.1 1.1 0 2.2 0.3 3.1 1 0.9 0.7 1.5 1.7 1.7 2.8q0.4-0.2 0.8-0.2c-0.2-1.3-0.9-2.4-2-3.3-1-0.8-2.3-1.2-3.6-1.2zm-2.8 5.7c1.7 1.2 3 2.8 3.7 4.8 0.4-1.9 1.1-3.4 1.9-4.4v-0.4c0-0.7-0.3-1.4-0.8-1.9-0.5-0.6-1.2-0.9-2-0.9q-0.6 0-1.1 0.2-0.5 0.3-0.9 0.6-0.4 0.4-0.6 0.9-0.2 0.5-0.2 1.1zm-5.8-1.1q0.3-0.1 0.5-0.1c0-0.6-0.1-1.1-0.2-1.6q-0.1 0.6-0.3 1.7zm1.4 1.9c-3.5 0-6.3 3.6-6.7 8.4h0.8c0.3-4.3 2.9-7.6 6-7.6 3.2 0 5.6 2.6 6.1 6.3l0.5-0.1c-0.5-4.1-3.2-7-6.7-7zm-0.9 3.2c-1.5 0.6-2.7 2.7-2.9 5.2h0.2c0.2-2.1 1.1-4.1 2.7-5.2zm-0.3 7.1c1.5-1.2 3.4-2.2 5.3-2.8-0.1-1.2-0.5-2.4-1.3-3.4q-0.2 0-0.3 0c-2.4 0-4.1 2.2-4.1 5.5q0.2 0.4 0.4 0.7zm-1.7 1.7c-0.3-1.1-0.6-1.5-0.8-1.5h-2.3c0.4 0.9 0.7 2.3 1 4.4q0.8-1.6 2.1-2.9z"/>
			<path id="Layer" class="s0" d="m31.5 40.4c1.7 1.7 2.6 3.9 2.6 6.3v7.3h-2.1v-7.3q0.1-1.4-0.4-2.7-0.6-1.2-1.5-2.2-1-1-2.3-1.5-1.3-0.6-2.6-0.6-1.4 0-2.7 0.6-1.3 0.5-2.3 1.5-0.9 1-1.5 2.2-0.5 1.3-0.4 2.7v7h-2.1v-7c0-2.4 0.9-4.6 2.6-6.3 1.7-1.6 4-2.6 6.4-2.6 2.3 0 4.6 1 6.3 2.6z"/>
		</g>
	</g>
</svg>