<svg version="1.2" xmlns="http://www.w3.org/2000/svg" viewBox="0 0 380 119" width="380" height="119">
	<style>
		.s0 { fill: #5696f8 }
		.s1 { fill: #b0b0b0 }
	</style>
	<path id="З" class="s0" aria-label="З"  d="m107.2 34.3q0-1.6-1.3-2.6-1.2-0.9-3.3-0.9-2 0-3.3 0.9-1.2 1-1.2 2.5h-8.2q0-2.8 1.6-5 1.7-2.3 4.6-3.5 2.9-1.3 6.5-1.3 6 0 9.4 2.6 3.4 2.5 3.4 7.1 0 2.4-1.4 4.3-1.3 1.9-3.7 3.1 2.7 1 4.2 3 1.5 2 1.5 4.9 0 4.6-3.7 7.4-3.7 2.6-9.7 2.6-5.7 0-9.4-2.6-3.7-2.7-3.7-7.3h8.2q0 1.6 1.4 2.6 1.3 1 3.5 1 2.3 0 3.7-1 1.4-1.1 1.4-2.8 0-2.6-1.2-3.6-1.2-1.1-3.6-1.1h-4.4v-6.1h4.7q4-0.1 4-4.2z"/>
	<path id="Layer" fill-rule="evenodd" class="s0" d="m128 68h-7.9v-35.1h7.4l0.3 2.3q0.9-1.1 2-1.8 1.7-1 3.9-1 2.5 0 4.3 0.9 1.8 0.9 3.1 2.6 1.2 1.7 1.9 4.1 0.6 2.4 0.6 5.2v0.5q0 2.8-0.6 5.2-0.7 2.3-1.9 4.1-1.2 1.7-3.1 2.7-1.8 1-4.2 1-2.3 0-4-1-1-0.6-1.8-1.5zm7.7-22.3v-0.5q0-1.5-0.2-2.7-0.2-1.2-0.7-2.1-0.4-0.9-1.2-1.4-0.7-0.5-1.8-0.5-1.3 0-2.2 0.4-0.8 0.3-1.3 1.1-0.5 0.8-0.7 2-0.2 1.1-0.2 2.7v1.9q0 1.8 0.4 3.1 0.4 1.4 1.3 2.1 1 0.8 2.7 0.8 1.1 0 1.9-0.5 0.7-0.6 1.2-1.5 0.4-1 0.6-2.2 0.2-1.3 0.2-2.7z"/>
	<path id="Layer" fill-rule="evenodd" class="s0" d="m146.1 45.8v-0.5q0-2.8 0.8-5.1 0.8-2.4 2.4-4.1 1.5-1.8 3.8-2.7 2.3-1 5.2-1 3 0 5.3 1 2.3 0.9 3.9 2.7 1.5 1.7 2.3 4.1 0.8 2.3 0.8 5.1v0.5q0 2.8-0.8 5.1-0.8 2.4-2.3 4.1-1.6 1.8-3.9 2.7-2.2 1-5.2 1-3 0-5.3-1-2.3-0.9-3.8-2.7-1.6-1.7-2.4-4.1-0.8-2.3-0.8-5.1zm7.9-0.5v0.5q0 1.4 0.2 2.7 0.3 1.2 0.7 2.1 0.5 1 1.4 1.5 0.8 0.5 2.1 0.5 1.2 0 2.1-0.5 0.8-0.5 1.3-1.5 0.5-0.9 0.7-2.1 0.2-1.3 0.2-2.7v-0.5q0-1.4-0.2-2.6-0.2-1.2-0.7-2.2-0.5-0.9-1.3-1.5-0.9-0.5-2.2-0.5-1.2 0-2 0.5-0.9 0.6-1.4 1.5-0.4 1-0.7 2.2-0.2 1.2-0.2 2.6z"/>
	<path id="Layer" fill-rule="evenodd" class="s0" d="m189.4 21.7h6.4q0 1.6-0.4 3-0.3 1.3-1.3 2.4-1 1.1-2.8 1.9-1.9 0.7-4.9 1.3-1.9 0.4-3.2 1.3-1.3 0.9-2.1 2.5-0.6 1.2-1 3.1 1.5-1.4 3.2-2.1 1.9-0.8 4.2-0.8 2.6 0 4.6 0.9 2 0.8 3.4 2.5 1.3 1.6 2 3.8 0.7 2.2 0.7 4.7v0.5q0 2.6-0.8 4.8-0.8 2.2-2.3 3.8-1.5 1.6-3.8 2.5-2.3 0.9-5.3 0.9-3 0-5.3-1-2.3-1-3.8-2.8-1.6-1.8-2.4-4.2-0.8-2.5-0.8-5.4v-0.9q0-4.7 0.8-8.2 0.8-3.5 2.3-5.8 1.5-2.4 3.6-3.9 2.1-1.4 4.8-2 1.6-0.4 2.5-0.7 1-0.4 1.3-0.9 0.4-0.4 0.4-1.2zm-3.4 18.7q-1.7 0-2.7 0.8-0.9 0.8-1.3 2.1-0.4 1.3-0.4 2.9v0.5q0 1.3 0.2 2.4 0.2 1 0.7 1.8 0.5 0.8 1.4 1.3 0.8 0.4 2.1 0.4 1.2 0 2.1-0.4 0.8-0.5 1.3-1.3 0.5-0.8 0.7-1.8 0.2-1.1 0.2-2.4v-0.5q0-1.2-0.2-2.2-0.2-1.1-0.7-1.9-0.5-0.8-1.3-1.3-0.9-0.4-2.1-0.4z"/>
	<path id="Layer" class="s0" d="m209.2 47.6l7-14.7h7.9v25.3h-7.9v-14.7l-7 14.7h-7.9v-25.3h7.9z"/>
	<path id="Layer" class="s0" d="m256.2 49.5l5.8-16.6h6.1l-9.2 25.3h-5.3l-9.2-25.3h6.2zm-7.5-16.7v25.4h-7.9v-25.4zm15.2 25.4v-25.4h7.9v25.4z"/>
	<path id="Layer" class="s0" d="m285.5 32.9v25.3h-7.9v-25.3zm-8.4-6.6q0-1.7 1.2-2.7 1.3-1.1 3.2-1.1 2 0 3.2 1.1 1.2 1 1.2 2.7 0 1.7-1.2 2.8-1.2 1.1-3.2 1.1-1.9 0-3.2-1.1-1.2-1.1-1.2-2.8z"/>
	<path id="Layer" class="s0" d="m301.1 52.6q1.1 0 1.9-0.4 0.8-0.4 1.2-1.2 0.4-0.8 0.4-1.8h7.4q0.1 2.8-1.4 5-1.4 2.1-3.8 3.3-2.4 1.2-5.5 1.2-3 0-5.2-1-2.2-1-3.7-2.7-1.5-1.8-2.2-4.1-0.8-2.3-0.8-5.1v-0.5q0-2.8 0.8-5.1 0.7-2.4 2.2-4.1 1.5-1.8 3.7-2.7 2.2-1 5.2-1 3.1 0 5.5 1.2 2.5 1.2 3.9 3.5 1.4 2.2 1.3 5.5h-7.4q0-1.2-0.4-2.1-0.3-0.9-1.1-1.5-0.8-0.5-2-0.5-1.2 0-2 0.5-0.7 0.6-1.1 1.5-0.4 1-0.6 2.2-0.1 1.2-0.1 2.6v0.5q0 1.4 0.1 2.7 0.2 1.2 0.6 2.1 0.4 0.9 1.1 1.5 0.8 0.5 2 0.5z"/>
	<path id="Layer" class="s0" d="m329.6 32.9v25.3h-7.9v-25.3zm8 0v6h-23.8v-6z"/>
	<path id="Layer" fill-rule="evenodd" class="s0" d="m338.9 45.8v-0.5q0-2.8 0.8-5.1 0.8-2.4 2.3-4.1 1.6-1.8 3.8-2.7 2.3-1 5.3-1 3 0 5.3 1 2.3 0.9 3.8 2.7 1.6 1.7 2.4 4.1 0.8 2.3 0.8 5.1v0.5q0 2.8-0.8 5.1-0.8 2.4-2.4 4.1-1.5 1.8-3.8 2.7-2.3 1-5.3 1-2.9 0-5.2-1-2.3-0.9-3.9-2.7-1.5-1.7-2.3-4.1-0.8-2.3-0.8-5.1zm7.9-0.5v0.5q0 1.4 0.2 2.7 0.2 1.2 0.7 2.1 0.5 1 1.3 1.5 0.9 0.5 2.1 0.5 1.3 0 2.1-0.5 0.8-0.5 1.3-1.5 0.5-0.9 0.7-2.1 0.3-1.3 0.3-2.7v-0.5q0-1.4-0.3-2.6-0.2-1.2-0.7-2.2-0.5-0.9-1.3-1.5-0.8-0.5-2.1-0.5-1.2 0-2.1 0.5-0.8 0.6-1.3 1.5-0.5 1-0.7 2.2-0.2 1.2-0.2 2.6z"/>
	<path id="Layer" class="s1" d="m92.7 74.1h6.7l7.6 23.7 7.6-23.7h6.7l-11.6 34.1h-5.4zm-4.1 0h6.9l1.3 26.2v7.9h-8.2zm29.9 0h6.9v34.2h-8.2v-8z"/>
	<path id="Layer" class="s1" d="m143.5 101.8v-10.4q0-1.1-0.3-1.9-0.3-0.7-1-1.2-0.6-0.4-1.7-0.4-0.9 0-1.6 0.3-0.6 0.3-0.9 0.9-0.3 0.6-0.3 1.6h-7.9q0-1.8 0.7-3.3 0.8-1.5 2.3-2.6 1.5-1.2 3.5-1.8 2.1-0.6 4.6-0.6 3 0 5.4 1 2.4 1 3.8 3 1.3 2 1.3 5v10.4q0 2.5 0.3 3.8 0.3 1.3 0.8 2.2v0.4h-7.9q-0.6-1.2-0.8-2.8-0.3-1.8-0.3-3.6zm1-9.1v4.2h-3.5q-1.1 0-1.9 0.3-0.7 0.4-1.2 0.9-0.4 0.5-0.6 1.2-0.2 0.6-0.2 1.3 0 0.8 0.3 1.3 0.4 0.6 0.9 0.9 0.6 0.3 1.4 0.3 1.3 0 2.2-0.5 0.9-0.5 1.4-1.3 0.5-0.7 0.5-1.3l1.7 3.2q-0.4 0.9-1 1.9-0.6 1-1.5 1.8-0.9 0.8-2.2 1.3-1.2 0.5-3 0.5-2.4 0-4.3-1-2-0.9-3.2-2.6-1.1-1.8-1.1-4 0-2 0.7-3.5 0.7-1.6 2.2-2.7 1.4-1 3.7-1.6 2.2-0.6 5.3-0.6z"/>
	<path id="Layer" class="s1" d="m163.8 72.2v36h-7.9v-36zm16.2 10.7l-11 12.9-5.8 5.7-3.4-5 4.8-6.2 5.9-7.4zm-8.4 25.3l-6.8-11.5 5.8-4.2 10 15.7z"/>
	<path id="Layer" class="s1" d="m193.9 108.7q-3.1 0-5.5-1-2.5-1-4.2-2.7-1.6-1.7-2.5-3.9-0.9-2.2-0.9-4.7v-0.9q0-2.8 0.8-5.2 0.8-2.4 2.3-4.1 1.5-1.8 3.8-2.8 2.3-1 5.3-1 2.7 0 4.9 0.9 2.1 0.8 3.6 2.4 1.5 1.7 2.3 4 0.8 2.3 0.8 5.1v3.2h-20.8v-4.9h13v-0.6q0.1-1.3-0.4-2.2-0.5-0.9-1.3-1.3-0.9-0.5-2.1-0.5-1.3 0-2.2 0.5-0.8 0.6-1.2 1.6-0.5 1-0.7 2.2-0.2 1.3-0.2 2.7v0.9q0 1.4 0.4 2.5 0.4 1.2 1.1 2 0.8 0.8 1.8 1.2 1.1 0.5 2.4 0.5 1.6 0 3.2-0.6 1.6-0.6 2.7-2l3.6 4.2q-0.8 1.1-2.2 2.2-1.4 1-3.4 1.7-2 0.6-4.4 0.6z"/>
	<path id="Layer" class="s1" d="m311.9 102.6q1.1 0 1.9-0.4 0.8-0.4 1.1-1.2 0.5-0.8 0.4-1.8h7.5q0 2.8-1.4 5-1.4 2.1-3.9 3.3-2.4 1.2-5.4 1.2-3 0-5.2-1-2.3-1-3.8-2.7-1.4-1.8-2.2-4.1-0.7-2.3-0.7-5.1v-0.5q0-2.8 0.7-5.1 0.8-2.4 2.2-4.1 1.5-1.8 3.7-2.7 2.3-1 5.2-1 3.2 0 5.6 1.2 2.4 1.2 3.8 3.5 1.4 2.2 1.4 5.5h-7.5q0.1-1.2-0.3-2.1-0.4-0.9-1.2-1.5-0.8-0.5-2-0.5-1.2 0-1.9 0.5-0.8 0.6-1.2 1.5-0.4 1-0.5 2.2-0.1 1.2-0.1 2.6v0.5q0 1.4 0.1 2.7 0.1 1.2 0.5 2.1 0.4 0.9 1.2 1.5 0.7 0.5 2 0.5z"/>
	<path id="Layer" class="s1" d="m334.5 82.9v25.3h-7.9v-25.3zm-8.4-6.6q0-1.7 1.2-2.7 1.2-1.1 3.2-1.1 1.9 0 3.1 1.1 1.2 1 1.2 2.7 0 1.7-1.2 2.8-1.2 1.1-3.1 1.1-2 0-3.2-1.1-1.2-1.1-1.2-2.8z"/>
	<path id="Layer" class="s1" d="m352.7 82.9v5.4h-15.3v-5.4zm-12-6.3h7.9v23.3q0 1.1 0.2 1.6 0.2 0.6 0.8 0.8 0.6 0.2 1.6 0.2 0.6 0 1.1 0 0.4-0.1 0.8-0.1v5.6q-1 0.3-2.1 0.5-1.1 0.2-2.3 0.2-2.6 0-4.4-0.8-1.7-0.8-2.7-2.5-0.9-1.7-0.9-4.5z"/>
	<path id="Layer copy" class="s1" d="m231.7 82.9v5.4h-15.3v-5.4zm-12-6.3h7.9v23.3q0 1.1 0.2 1.6 0.2 0.6 0.8 0.8 0.6 0.2 1.6 0.2 0.6 0 1.1 0 0.4-0.1 0.8-0.1v5.6q-1 0.3-2.1 0.5-1.1 0.2-2.3 0.2-2.6 0-4.4-0.8-1.7-0.8-2.7-2.5-0.9-1.7-0.9-4.5z"/>
	<path id="h" class="s1" d="m260.6 94v14h-7.4v-2.3-8.4q0-3-0.1-4.1-0.1-1.1-0.5-1.7-0.4-0.7-1.1-1.1-0.8-0.4-1.7-0.4-2.3 0-3.6 1.8-1.3 1.8-1.3 4.9v11.3h-7.4v-31.9h7.4v12.3q1.6-2 3.5-3 1.9-0.9 4.1-0.9 4 0 6 2.4 2.1 2.5 2.1 7.1z"/>
	<path id="Layer copy 2" class="s1" d="m276.9 108.7q-3.1 0-5.5-1-2.5-1-4.2-2.7-1.6-1.7-2.5-3.9-0.9-2.2-0.9-4.7v-0.9q0-2.8 0.8-5.2 0.8-2.4 2.3-4.1 1.5-1.8 3.8-2.8 2.3-1 5.3-1 2.7 0 4.9 0.9 2.1 0.8 3.6 2.4 1.5 1.7 2.3 4 0.8 2.3 0.8 5.1v3.2h-20.8v-4.9h13v-0.6q0.1-1.3-0.4-2.2-0.5-0.9-1.3-1.3-0.9-0.5-2.1-0.5-1.3 0-2.2 0.5-0.8 0.6-1.2 1.6-0.5 1-0.7 2.2-0.2 1.3-0.2 2.7v0.9q0 1.4 0.4 2.5 0.4 1.2 1.1 2 0.8 0.8 1.8 1.2 1.1 0.5 2.4 0.5 1.6 0 3.2-0.6 1.6-0.6 2.7-2l3.6 4.2q-0.8 1.1-2.2 2.2-1.4 1-3.4 1.7-2 0.6-4.4 0.6z"/>
	<path id="Layer" class="s1" d="m363.7 105.2l6.5-22.3h8.5l-10.2 29.1q-0.3 1-0.9 2.1-0.5 1.1-1.4 2.1-1 1-2.5 1.6-1.4 0.7-3.6 0.7-1.1 0-1.7-0.2-0.5-0.1-1.5-0.3v-5.7q0.3 0 0.5 0 0.2 0 0.5 0 1.3 0 2-0.2 0.8-0.3 1.2-0.8 0.4-0.5 0.6-1.2zm-1.6-22.3l5 17.7 0.8 8.4h-5.3l-9-26.1z"/>
	<path id="Layer" fill-rule="evenodd" class="s0" d="m77 92.9h-4.3c0.1-3.6-0.6-7.1-1.9-10.5-1.4-3.3-3.4-6.3-5.9-8.9-2.5-2.5-5.5-4.6-8.8-6-3.4-1.3-6.9-2.1-10.5-2.1-3.6 0-7.2 0.7-10.5 2.1-3.4 1.4-6.4 3.4-8.9 6-2.5 2.5-4.5 5.5-5.9 8.9-1.3 3.3-2 6.9-1.9 10.4q0 1.3 0 2.7h-4.4c0-18.8-1.5-23.9-2.3-25.3-1.9 2.7-4.4 14.8-4.4 28.6h-4.3c-0.1-7.2 0.6-14.5 1.9-21.7 1.3-6.3 2.9-9.9 5-11.1 0.3-9.4 4.6-17.4 10.6-21.1 0.9-5.9 1.8-9.6 3.4-11-0.2-0.4-0.4-0.9-0.4-1.4q0-2.4 4.5-3.6 0-0.3 0-0.6c0-2.9 3.7-4 7.1-4.5l1.8-21.6c0-0.6 0.2-1.2 0.6-1.6 0.4-0.4 1-0.6 1.6-0.6 0.5 0 1.1 0.2 1.5 0.6 0.4 0.4 0.6 1 0.6 1.5l2.3 21.7c3.3 0.4 7.2 1.6 7.2 4.5q0 0.2 0 0.4 5.5 1.1 5.5 3.8 0 0.7-0.3 1.3-0.3 0.6-0.9 1c2.2 2.4 3.6 5.5 3.9 8.7 7.1 3.4 10.7 17.3 11.8 30.6 4.1 5.4 6.3 12 6.3 18.8zm-21.4-45.8c-3.3 0-6.8 5.1-7.4 14.5q0.9 0.1 1.8 0.2c1-6.5 2.1-11.4 6.9-11.4 2.7 0 4.6 2.6 6.1 5.9-2.4-6.5-5.3-9.2-7.4-9.2zm1.2 7.6c-1.2 0.1-2 4.3-2.6 8.1q3.7 1 7 3c-1.3-7-3.4-10.7-4.4-11.1zm-13.8-21.1c-2.8 0-5.4 0.9-7.5 2.7-2.1 1.8-3.5 4.2-3.9 6.9q0.7 0.2 1.4 0.4c0.4-2.3 1.6-4.4 3.4-5.9 1.8-1.5 4.1-2.3 6.5-2.2 2.3 0 4.5 0.7 6.3 2.2 1.8 1.4 3.1 3.4 3.6 5.6q0.8-0.3 1.7-0.4c-0.6-2.6-2-5-4.1-6.7-2.1-1.6-4.7-2.6-7.4-2.6zm-5.8 11.9c3.5 2.4 6.1 5.8 7.5 9.9 0.9-3.8 2.2-6.9 4-9.1v-0.7c0-1.6-0.6-3-1.7-4.1-1.1-1.1-2.6-1.7-4.1-1.7q-1.2 0-2.2 0.4-1.1 0.4-1.9 1.2-0.8 0.8-1.2 1.9-0.5 1-0.5 2.2zm-11.9-2.4q0.6-0.1 1.1-0.2c-0.1-1.1-0.2-2.3-0.4-3.2-0.2 0.8-0.4 1.9-0.7 3.4zm2.8 4c-7 0-12.9 7.6-13.6 17.5h1.5c0.6-8.9 6-15.7 12.5-15.7 6.5 0 11.4 5.3 12.4 13l1-0.2c-1-8.6-6.5-14.6-13.7-14.6zm-1.9 6.6c-3.1 1.4-5.5 5.8-5.9 10.9h0.3c0.6-4.3 2.4-8.4 5.6-10.9zm-0.7 14.9c3.3-2.6 7-4.6 11-5.8-0.1-2.6-1.1-5-2.7-7.1q-0.3 0-0.7 0c-4.9 0-8.2 4.6-8.3 11.4q0.4 0.7 0.7 1.5zm-3.5 3.4c-0.4-2.2-1.1-3.1-1.4-3.1h-4.8c0.8 1.9 1.5 4.9 1.9 9.3q1.8-3.4 4.3-6.2z"/>
	<path id="Layer" class="s0" d="m59.5 80c3.5 3.5 5.4 8.1 5.5 13v15.2h-4.4v-15.2c0.1-1.9-0.2-3.7-0.9-5.5-0.7-1.7-1.8-3.3-3.1-4.7-1.3-1.3-2.9-2.4-4.6-3.1-1.8-0.7-3.6-1.1-5.5-1.1-1.9 0-3.8 0.4-5.5 1.1-1.7 0.7-3.3 1.8-4.6 3.1-1.4 1.4-2.4 3-3.1 4.7-0.7 1.8-1 3.6-1 5.5v14.6h-4.3v-14.6c0-4.9 2-9.5 5.4-13 3.5-3.4 8.2-5.3 13.1-5.3 4.9 0 9.6 1.9 13 5.3z"/>
</svg>
