<svg width="166" height="31" viewBox="0 0 166 31" fill="none" xmlns="http://www.w3.org/2000/svg">
<path fill-rule="evenodd" clip-rule="evenodd" d="M15.1635 10.5L10.5865 15.2788L8.83654 13.5288L7.625 14.6731L10.6538 17.6346L16.375 11.6442L15.1635 10.5Z" fill="#B0B0B0"/>
<path fill-rule="evenodd" clip-rule="evenodd" d="M11.534 24.887C11.68 24.964 11.84 25.003 12 25.003C12.16 25.003 12.32 24.964 12.466 24.887C12.773 24.725 20 20.85 20 14.788V8.337C20 7.927 19.749 7.558 19.367 7.407C14.617 5.531 9.383 5.531 4.633 7.407C4.251 7.558 4 7.927 4 8.337V14.788C4 20.85 11.227 24.725 11.534 24.887ZM6 14.788V9.031C9.895 7.657 14.105 7.657 18 9.031V14.788C18 18.863 13.485 21.944 12 22.847C10.515 21.944 6 18.863 6 14.788Z" fill="#1D1D20"/>
<path d="M34.0234 17.7578C34.0234 17.5495 33.9766 17.3568 33.8828 17.1797C33.7943 16.9974 33.6094 16.8333 33.3281 16.6875C33.0521 16.5365 32.6354 16.4062 32.0781 16.2969C31.6094 16.1979 31.1849 16.0807 30.8047 15.9453C30.4297 15.8099 30.1094 15.6458 29.8438 15.4531C29.5833 15.2604 29.3828 15.0339 29.2422 14.7734C29.1016 14.513 29.0312 14.2083 29.0312 13.8594C29.0312 13.526 29.1042 13.2109 29.25 12.9141C29.401 12.6172 29.612 12.3542 29.8828 12.125C30.1589 11.8958 30.4896 11.7161 30.875 11.5859C31.2604 11.4557 31.6901 11.3906 32.1641 11.3906C32.8411 11.3906 33.4193 11.5104 33.8984 11.75C34.3776 11.9896 34.7448 12.3099 35 12.7109C35.2552 13.1068 35.3828 13.5469 35.3828 14.0312H33.9375C33.9375 13.7969 33.8672 13.5703 33.7266 13.3516C33.5911 13.1276 33.3906 12.9427 33.125 12.7969C32.8646 12.651 32.5443 12.5781 32.1641 12.5781C31.763 12.5781 31.4375 12.6406 31.1875 12.7656C30.9427 12.8854 30.763 13.0391 30.6484 13.2266C30.5391 13.4141 30.4844 13.612 30.4844 13.8203C30.4844 13.9766 30.5104 14.1172 30.5625 14.2422C30.6198 14.362 30.7188 14.474 30.8594 14.5781C31 14.6771 31.1979 14.7708 31.4531 14.8594C31.7083 14.9479 32.0339 15.0365 32.4297 15.125C33.1224 15.2812 33.6927 15.4688 34.1406 15.6875C34.5885 15.9062 34.9219 16.1745 35.1406 16.4922C35.3594 16.8099 35.4688 17.1953 35.4688 17.6484C35.4688 18.0182 35.3906 18.3568 35.2344 18.6641C35.0833 18.9714 34.862 19.237 34.5703 19.4609C34.2839 19.6797 33.9401 19.8516 33.5391 19.9766C33.1432 20.0964 32.6979 20.1562 32.2031 20.1562C31.4583 20.1562 30.8281 20.0234 30.3125 19.7578C29.7969 19.4922 29.4062 19.1484 29.1406 18.7266C28.875 18.3047 28.7422 17.8594 28.7422 17.3906H30.1953C30.2161 17.7865 30.3307 18.1016 30.5391 18.3359C30.7474 18.5651 31.0026 18.7292 31.3047 18.8281C31.6068 18.9219 31.9062 18.9688 32.2031 18.9688C32.599 18.9688 32.9297 18.9167 33.1953 18.8125C33.4661 18.7083 33.6719 18.5651 33.8125 18.3828C33.9531 18.2005 34.0234 17.9922 34.0234 17.7578ZM40.875 20.1562C40.2865 20.1562 39.7526 20.0573 39.2734 19.8594C38.7995 19.6562 38.3906 19.3724 38.0469 19.0078C37.7083 18.6432 37.4479 18.2109 37.2656 17.7109C37.0833 17.2109 36.9922 16.6641 36.9922 16.0703V15.7422C36.9922 15.0547 37.0938 14.4427 37.2969 13.9062C37.5 13.3646 37.776 12.9062 38.125 12.5312C38.474 12.1562 38.8698 11.8724 39.3125 11.6797C39.7552 11.487 40.2135 11.3906 40.6875 11.3906C41.2917 11.3906 41.8125 11.4948 42.25 11.7031C42.6927 11.9115 43.0547 12.2031 43.3359 12.5781C43.6172 12.9479 43.8255 13.3854 43.9609 13.8906C44.0964 14.3906 44.1641 14.9375 44.1641 15.5312V16.1797H37.8516V15H42.7188V14.8906C42.6979 14.5156 42.6198 14.151 42.4844 13.7969C42.3542 13.4427 42.1458 13.151 41.8594 12.9219C41.5729 12.6927 41.1823 12.5781 40.6875 12.5781C40.3594 12.5781 40.0573 12.6484 39.7812 12.7891C39.5052 12.9245 39.2682 13.1276 39.0703 13.3984C38.8724 13.6693 38.7188 14 38.6094 14.3906C38.5 14.7812 38.4453 15.2318 38.4453 15.7422V16.0703C38.4453 16.4714 38.5 16.849 38.6094 17.2031C38.724 17.5521 38.888 17.8594 39.1016 18.125C39.3203 18.3906 39.5833 18.599 39.8906 18.75C40.2031 18.901 40.5573 18.9766 40.9531 18.9766C41.4635 18.9766 41.8958 18.8724 42.25 18.6641C42.6042 18.4557 42.9141 18.1771 43.1797 17.8281L44.0547 18.5234C43.8724 18.7995 43.6406 19.0625 43.3594 19.3125C43.0781 19.5625 42.7318 19.7656 42.3203 19.9219C41.9141 20.0781 41.4323 20.1562 40.875 20.1562ZM49.2344 18.9688C49.5781 18.9688 49.8958 18.8984 50.1875 18.7578C50.4792 18.6172 50.7188 18.4245 50.9062 18.1797C51.0938 17.9297 51.2005 17.6458 51.2266 17.3281H52.6016C52.5755 17.8281 52.4062 18.2943 52.0938 18.7266C51.7865 19.1536 51.3828 19.5 50.8828 19.7656C50.3828 20.026 49.8333 20.1562 49.2344 20.1562C48.599 20.1562 48.0443 20.0443 47.5703 19.8203C47.1016 19.5964 46.7109 19.2891 46.3984 18.8984C46.0911 18.5078 45.8594 18.0599 45.7031 17.5547C45.5521 17.0443 45.4766 16.5052 45.4766 15.9375V15.6094C45.4766 15.0417 45.5521 14.5052 45.7031 14C45.8594 13.4896 46.0911 13.0391 46.3984 12.6484C46.7109 12.2578 47.1016 11.9505 47.5703 11.7266C48.0443 11.5026 48.599 11.3906 49.2344 11.3906C49.8958 11.3906 50.474 11.526 50.9688 11.7969C51.4635 12.0625 51.8516 12.4271 52.1328 12.8906C52.4193 13.349 52.5755 13.8698 52.6016 14.4531H51.2266C51.2005 14.1042 51.1016 13.7891 50.9297 13.5078C50.763 13.2266 50.5339 13.0026 50.2422 12.8359C49.9557 12.6641 49.6198 12.5781 49.2344 12.5781C48.7917 12.5781 48.4193 12.6667 48.1172 12.8438C47.8203 13.0156 47.5833 13.25 47.4062 13.5469C47.2344 13.8385 47.1094 14.1641 47.0312 14.5234C46.9583 14.8776 46.9219 15.2396 46.9219 15.6094V15.9375C46.9219 16.3073 46.9583 16.6719 47.0312 17.0312C47.1042 17.3906 47.2266 17.7161 47.3984 18.0078C47.5755 18.2995 47.8125 18.5339 48.1094 18.7109C48.4115 18.8828 48.7865 18.9688 49.2344 18.9688ZM59.3984 18.0469V11.5469H60.8516V20H59.4688L59.3984 18.0469ZM59.6719 16.2656L60.2734 16.25C60.2734 16.8125 60.2135 17.3333 60.0938 17.8125C59.9792 18.2865 59.7917 18.6979 59.5312 19.0469C59.2708 19.3958 58.9297 19.6693 58.5078 19.8672C58.0859 20.0599 57.5729 20.1562 56.9688 20.1562C56.5573 20.1562 56.1797 20.0964 55.8359 19.9766C55.4974 19.8568 55.2057 19.6719 54.9609 19.4219C54.7161 19.1719 54.526 18.8464 54.3906 18.4453C54.2604 18.0443 54.1953 17.5625 54.1953 17V11.5469H55.6406V17.0156C55.6406 17.3958 55.6823 17.7109 55.7656 17.9609C55.8542 18.2057 55.9714 18.401 56.1172 18.5469C56.2682 18.6875 56.4349 18.7865 56.6172 18.8438C56.8047 18.901 56.9974 18.9297 57.1953 18.9297C57.8099 18.9297 58.2969 18.8125 58.6562 18.5781C59.0156 18.3385 59.2734 18.0182 59.4297 17.6172C59.5911 17.2109 59.6719 16.7604 59.6719 16.2656ZM64.5 12.875V20H63.0547V11.5469H64.4609L64.5 12.875ZM67.1406 11.5L67.1328 12.8438C67.013 12.8177 66.8984 12.8021 66.7891 12.7969C66.6849 12.7865 66.5651 12.7812 66.4297 12.7812C66.0964 12.7812 65.8021 12.8333 65.5469 12.9375C65.2917 13.0417 65.0755 13.1875 64.8984 13.375C64.7214 13.5625 64.5807 13.7865 64.4766 14.0469C64.3776 14.3021 64.3125 14.5833 64.2812 14.8906L63.875 15.125C63.875 14.6146 63.9245 14.1354 64.0234 13.6875C64.1276 13.2396 64.2865 12.8438 64.5 12.5C64.7135 12.151 64.9844 11.8802 65.3125 11.6875C65.6458 11.4896 66.0417 11.3906 66.5 11.3906C66.6042 11.3906 66.724 11.4036 66.8594 11.4297C66.9948 11.4505 67.0885 11.474 67.1406 11.5ZM71.8281 20.1562C71.2396 20.1562 70.7057 20.0573 70.2266 19.8594C69.7526 19.6562 69.3438 19.3724 69 19.0078C68.6615 18.6432 68.401 18.2109 68.2188 17.7109C68.0365 17.2109 67.9453 16.6641 67.9453 16.0703V15.7422C67.9453 15.0547 68.0469 14.4427 68.25 13.9062C68.4531 13.3646 68.7292 12.9062 69.0781 12.5312C69.4271 12.1562 69.8229 11.8724 70.2656 11.6797C70.7083 11.487 71.1667 11.3906 71.6406 11.3906C72.2448 11.3906 72.7656 11.4948 73.2031 11.7031C73.6458 11.9115 74.0078 12.2031 74.2891 12.5781C74.5703 12.9479 74.7786 13.3854 74.9141 13.8906C75.0495 14.3906 75.1172 14.9375 75.1172 15.5312V16.1797H68.8047V15H73.6719V14.8906C73.651 14.5156 73.5729 14.151 73.4375 13.7969C73.3073 13.4427 73.099 13.151 72.8125 12.9219C72.526 12.6927 72.1354 12.5781 71.6406 12.5781C71.3125 12.5781 71.0104 12.6484 70.7344 12.7891C70.4583 12.9245 70.2214 13.1276 70.0234 13.3984C69.8255 13.6693 69.6719 14 69.5625 14.3906C69.4531 14.7812 69.3984 15.2318 69.3984 15.7422V16.0703C69.3984 16.4714 69.4531 16.849 69.5625 17.2031C69.6771 17.5521 69.8411 17.8594 70.0547 18.125C70.2734 18.3906 70.5365 18.599 70.8438 18.75C71.1562 18.901 71.5104 18.9766 71.9062 18.9766C72.4167 18.9766 72.849 18.8724 73.2031 18.6641C73.5573 18.4557 73.8672 18.1771 74.1328 17.8281L75.0078 18.5234C74.8255 18.7995 74.5938 19.0625 74.3125 19.3125C74.0312 19.5625 73.6849 19.7656 73.2734 19.9219C72.8672 20.0781 72.3854 20.1562 71.8281 20.1562ZM84.3125 11.5469V12.6562H79.7422V11.5469H84.3125ZM81.2891 9.49219H82.7344V17.9062C82.7344 18.1927 82.7786 18.4089 82.8672 18.5547C82.9557 18.7005 83.0703 18.7969 83.2109 18.8438C83.3516 18.8906 83.5026 18.9141 83.6641 18.9141C83.7839 18.9141 83.9089 18.9036 84.0391 18.8828C84.1745 18.8568 84.276 18.8359 84.3438 18.8203L84.3516 20C84.237 20.0365 84.0859 20.0703 83.8984 20.1016C83.7161 20.138 83.4948 20.1562 83.2344 20.1562C82.8802 20.1562 82.5547 20.0859 82.2578 19.9453C81.9609 19.8047 81.724 19.5703 81.5469 19.2422C81.375 18.9089 81.2891 18.4609 81.2891 17.8984V9.49219ZM87.4531 12.875V20H86.0078V11.5469H87.4141L87.4531 12.875ZM90.0938 11.5L90.0859 12.8438C89.9661 12.8177 89.8516 12.8021 89.7422 12.7969C89.638 12.7865 89.5182 12.7812 89.3828 12.7812C89.0495 12.7812 88.7552 12.8333 88.5 12.9375C88.2448 13.0417 88.0286 13.1875 87.8516 13.375C87.6745 13.5625 87.5339 13.7865 87.4297 14.0469C87.3307 14.3021 87.2656 14.5833 87.2344 14.8906L86.8281 15.125C86.8281 14.6146 86.8776 14.1354 86.9766 13.6875C87.0807 13.2396 87.2396 12.8438 87.4531 12.5C87.6667 12.151 87.9375 11.8802 88.2656 11.6875C88.599 11.4896 88.9948 11.3906 89.4531 11.3906C89.5573 11.3906 89.6771 11.4036 89.8125 11.4297C89.9479 11.4505 90.0417 11.474 90.0938 11.5ZM96.1016 18.5547V14.2031C96.1016 13.8698 96.0339 13.5807 95.8984 13.3359C95.7682 13.0859 95.5703 12.8932 95.3047 12.7578C95.0391 12.6224 94.7109 12.5547 94.3203 12.5547C93.9557 12.5547 93.6354 12.6172 93.3594 12.7422C93.0885 12.8672 92.875 13.0312 92.7188 13.2344C92.5677 13.4375 92.4922 13.6562 92.4922 13.8906H91.0469C91.0469 13.5885 91.125 13.2891 91.2812 12.9922C91.4375 12.6953 91.6615 12.4271 91.9531 12.1875C92.25 11.9427 92.6042 11.75 93.0156 11.6094C93.4323 11.4635 93.8958 11.3906 94.4062 11.3906C95.0208 11.3906 95.5625 11.4948 96.0312 11.7031C96.5052 11.9115 96.875 12.2266 97.1406 12.6484C97.4115 13.0651 97.5469 13.5885 97.5469 14.2188V18.1562C97.5469 18.4375 97.5703 18.737 97.6172 19.0547C97.6693 19.3724 97.7448 19.6458 97.8438 19.875V20H96.3359C96.263 19.8333 96.2057 19.612 96.1641 19.3359C96.1224 19.0547 96.1016 18.7943 96.1016 18.5547ZM96.3516 14.875L96.3672 15.8906H94.9062C94.4948 15.8906 94.1276 15.9245 93.8047 15.9922C93.4818 16.0547 93.2109 16.151 92.9922 16.2812C92.7734 16.4115 92.6068 16.5755 92.4922 16.7734C92.3776 16.9661 92.3203 17.1927 92.3203 17.4531C92.3203 17.7188 92.3802 17.9609 92.5 18.1797C92.6198 18.3984 92.7995 18.5729 93.0391 18.7031C93.2839 18.8281 93.5833 18.8906 93.9375 18.8906C94.3802 18.8906 94.7708 18.7969 95.1094 18.6094C95.4479 18.4219 95.7161 18.1927 95.9141 17.9219C96.1172 17.651 96.2266 17.388 96.2422 17.1328L96.8594 17.8281C96.8229 18.0469 96.724 18.2891 96.5625 18.5547C96.401 18.8203 96.1849 19.0755 95.9141 19.3203C95.6484 19.5599 95.3307 19.7604 94.9609 19.9219C94.5964 20.0781 94.1849 20.1562 93.7266 20.1562C93.1536 20.1562 92.651 20.0443 92.2188 19.8203C91.7917 19.5964 91.4583 19.2969 91.2188 18.9219C90.9844 18.5417 90.8672 18.1172 90.8672 17.6484C90.8672 17.1953 90.9557 16.7969 91.1328 16.4531C91.3099 16.1042 91.5651 15.8151 91.8984 15.5859C92.2318 15.3516 92.6328 15.1745 93.1016 15.0547C93.5703 14.9349 94.0938 14.875 94.6719 14.875H96.3516ZM101.266 13.3516V20H99.8203V11.5469H101.188L101.266 13.3516ZM100.922 15.4531L100.32 15.4297C100.326 14.8516 100.411 14.3177 100.578 13.8281C100.745 13.3333 100.979 12.9036 101.281 12.5391C101.583 12.1745 101.943 11.8932 102.359 11.6953C102.781 11.4922 103.247 11.3906 103.758 11.3906C104.174 11.3906 104.549 11.4479 104.883 11.5625C105.216 11.6719 105.5 11.849 105.734 12.0938C105.974 12.3385 106.156 12.6562 106.281 13.0469C106.406 13.4323 106.469 13.9036 106.469 14.4609V20H105.016V14.4453C105.016 14.0026 104.951 13.6484 104.82 13.3828C104.69 13.112 104.5 12.9167 104.25 12.7969C104 12.6719 103.693 12.6094 103.328 12.6094C102.969 12.6094 102.641 12.6849 102.344 12.8359C102.052 12.987 101.799 13.1953 101.586 13.4609C101.378 13.7266 101.214 14.0312 101.094 14.375C100.979 14.7135 100.922 15.0729 100.922 15.4531ZM113.586 17.7578C113.586 17.5495 113.539 17.3568 113.445 17.1797C113.357 16.9974 113.172 16.8333 112.891 16.6875C112.615 16.5365 112.198 16.4062 111.641 16.2969C111.172 16.1979 110.747 16.0807 110.367 15.9453C109.992 15.8099 109.672 15.6458 109.406 15.4531C109.146 15.2604 108.945 15.0339 108.805 14.7734C108.664 14.513 108.594 14.2083 108.594 13.8594C108.594 13.526 108.667 13.2109 108.812 12.9141C108.964 12.6172 109.174 12.3542 109.445 12.125C109.721 11.8958 110.052 11.7161 110.438 11.5859C110.823 11.4557 111.253 11.3906 111.727 11.3906C112.404 11.3906 112.982 11.5104 113.461 11.75C113.94 11.9896 114.307 12.3099 114.562 12.7109C114.818 13.1068 114.945 13.5469 114.945 14.0312H113.5C113.5 13.7969 113.43 13.5703 113.289 13.3516C113.154 13.1276 112.953 12.9427 112.688 12.7969C112.427 12.651 112.107 12.5781 111.727 12.5781C111.326 12.5781 111 12.6406 110.75 12.7656C110.505 12.8854 110.326 13.0391 110.211 13.2266C110.102 13.4141 110.047 13.612 110.047 13.8203C110.047 13.9766 110.073 14.1172 110.125 14.2422C110.182 14.362 110.281 14.474 110.422 14.5781C110.562 14.6771 110.76 14.7708 111.016 14.8594C111.271 14.9479 111.596 15.0365 111.992 15.125C112.685 15.2812 113.255 15.4688 113.703 15.6875C114.151 15.9062 114.484 16.1745 114.703 16.4922C114.922 16.8099 115.031 17.1953 115.031 17.6484C115.031 18.0182 114.953 18.3568 114.797 18.6641C114.646 18.9714 114.424 19.237 114.133 19.4609C113.846 19.6797 113.503 19.8516 113.102 19.9766C112.706 20.0964 112.26 20.1562 111.766 20.1562C111.021 20.1562 110.391 20.0234 109.875 19.7578C109.359 19.4922 108.969 19.1484 108.703 18.7266C108.438 18.3047 108.305 17.8594 108.305 17.3906H109.758C109.779 17.7865 109.893 18.1016 110.102 18.3359C110.31 18.5651 110.565 18.7292 110.867 18.8281C111.169 18.9219 111.469 18.9688 111.766 18.9688C112.161 18.9688 112.492 18.9167 112.758 18.8125C113.029 18.7083 113.234 18.5651 113.375 18.3828C113.516 18.2005 113.586 17.9922 113.586 17.7578ZM121.914 18.5547V14.2031C121.914 13.8698 121.846 13.5807 121.711 13.3359C121.581 13.0859 121.383 12.8932 121.117 12.7578C120.852 12.6224 120.523 12.5547 120.133 12.5547C119.768 12.5547 119.448 12.6172 119.172 12.7422C118.901 12.8672 118.688 13.0312 118.531 13.2344C118.38 13.4375 118.305 13.6562 118.305 13.8906H116.859C116.859 13.5885 116.938 13.2891 117.094 12.9922C117.25 12.6953 117.474 12.4271 117.766 12.1875C118.062 11.9427 118.417 11.75 118.828 11.6094C119.245 11.4635 119.708 11.3906 120.219 11.3906C120.833 11.3906 121.375 11.4948 121.844 11.7031C122.318 11.9115 122.688 12.2266 122.953 12.6484C123.224 13.0651 123.359 13.5885 123.359 14.2188V18.1562C123.359 18.4375 123.383 18.737 123.43 19.0547C123.482 19.3724 123.557 19.6458 123.656 19.875V20H122.148C122.076 19.8333 122.018 19.612 121.977 19.3359C121.935 19.0547 121.914 18.7943 121.914 18.5547ZM122.164 14.875L122.18 15.8906H120.719C120.307 15.8906 119.94 15.9245 119.617 15.9922C119.294 16.0547 119.023 16.151 118.805 16.2812C118.586 16.4115 118.419 16.5755 118.305 16.7734C118.19 16.9661 118.133 17.1927 118.133 17.4531C118.133 17.7188 118.193 17.9609 118.312 18.1797C118.432 18.3984 118.612 18.5729 118.852 18.7031C119.096 18.8281 119.396 18.8906 119.75 18.8906C120.193 18.8906 120.583 18.7969 120.922 18.6094C121.26 18.4219 121.529 18.1927 121.727 17.9219C121.93 17.651 122.039 17.388 122.055 17.1328L122.672 17.8281C122.635 18.0469 122.536 18.2891 122.375 18.5547C122.214 18.8203 121.997 19.0755 121.727 19.3203C121.461 19.5599 121.143 19.7604 120.773 19.9219C120.409 20.0781 119.997 20.1562 119.539 20.1562C118.966 20.1562 118.464 20.0443 118.031 19.8203C117.604 19.5964 117.271 19.2969 117.031 18.9219C116.797 18.5417 116.68 18.1172 116.68 17.6484C116.68 17.1953 116.768 16.7969 116.945 16.4531C117.122 16.1042 117.378 15.8151 117.711 15.5859C118.044 15.3516 118.445 15.1745 118.914 15.0547C119.383 14.9349 119.906 14.875 120.484 14.875H122.164ZM129.016 18.9688C129.359 18.9688 129.677 18.8984 129.969 18.7578C130.26 18.6172 130.5 18.4245 130.688 18.1797C130.875 17.9297 130.982 17.6458 131.008 17.3281H132.383C132.357 17.8281 132.188 18.2943 131.875 18.7266C131.568 19.1536 131.164 19.5 130.664 19.7656C130.164 20.026 129.615 20.1562 129.016 20.1562C128.38 20.1562 127.826 20.0443 127.352 19.8203C126.883 19.5964 126.492 19.2891 126.18 18.8984C125.872 18.5078 125.641 18.0599 125.484 17.5547C125.333 17.0443 125.258 16.5052 125.258 15.9375V15.6094C125.258 15.0417 125.333 14.5052 125.484 14C125.641 13.4896 125.872 13.0391 126.18 12.6484C126.492 12.2578 126.883 11.9505 127.352 11.7266C127.826 11.5026 128.38 11.3906 129.016 11.3906C129.677 11.3906 130.255 11.526 130.75 11.7969C131.245 12.0625 131.633 12.4271 131.914 12.8906C132.201 13.349 132.357 13.8698 132.383 14.4531H131.008C130.982 14.1042 130.883 13.7891 130.711 13.5078C130.544 13.2266 130.315 13.0026 130.023 12.8359C129.737 12.6641 129.401 12.5781 129.016 12.5781C128.573 12.5781 128.201 12.6667 127.898 12.8438C127.602 13.0156 127.365 13.25 127.188 13.5469C127.016 13.8385 126.891 14.1641 126.812 14.5234C126.74 14.8776 126.703 15.2396 126.703 15.6094V15.9375C126.703 16.3073 126.74 16.6719 126.812 17.0312C126.885 17.3906 127.008 17.7161 127.18 18.0078C127.357 18.2995 127.594 18.5339 127.891 18.7109C128.193 18.8828 128.568 18.9688 129.016 18.9688ZM137.547 11.5469V12.6562H132.977V11.5469H137.547ZM134.523 9.49219H135.969V17.9062C135.969 18.1927 136.013 18.4089 136.102 18.5547C136.19 18.7005 136.305 18.7969 136.445 18.8438C136.586 18.8906 136.737 18.9141 136.898 18.9141C137.018 18.9141 137.143 18.9036 137.273 18.8828C137.409 18.8568 137.51 18.8359 137.578 18.8203L137.586 20C137.471 20.0365 137.32 20.0703 137.133 20.1016C136.951 20.138 136.729 20.1562 136.469 20.1562C136.115 20.1562 135.789 20.0859 135.492 19.9453C135.195 19.8047 134.958 19.5703 134.781 19.2422C134.609 18.9089 134.523 18.4609 134.523 17.8984V9.49219ZM140.812 11.5469V20H139.359V11.5469H140.812ZM139.25 9.30469C139.25 9.07031 139.32 8.8724 139.461 8.71094C139.607 8.54948 139.82 8.46875 140.102 8.46875C140.378 8.46875 140.589 8.54948 140.734 8.71094C140.885 8.8724 140.961 9.07031 140.961 9.30469C140.961 9.52865 140.885 9.72135 140.734 9.88281C140.589 10.0391 140.378 10.1172 140.102 10.1172C139.82 10.1172 139.607 10.0391 139.461 9.88281C139.32 9.72135 139.25 9.52865 139.25 9.30469ZM142.75 15.8672V15.6875C142.75 15.0781 142.839 14.513 143.016 13.9922C143.193 13.4661 143.448 13.0104 143.781 12.625C144.115 12.2344 144.518 11.9323 144.992 11.7188C145.466 11.5 145.997 11.3906 146.586 11.3906C147.18 11.3906 147.714 11.5 148.188 11.7188C148.667 11.9323 149.073 12.2344 149.406 12.625C149.745 13.0104 150.003 13.4661 150.18 13.9922C150.357 14.513 150.445 15.0781 150.445 15.6875V15.8672C150.445 16.4766 150.357 17.0417 150.18 17.5625C150.003 18.0833 149.745 18.5391 149.406 18.9297C149.073 19.3151 148.669 19.6172 148.195 19.8359C147.727 20.0495 147.195 20.1562 146.602 20.1562C146.008 20.1562 145.474 20.0495 145 19.8359C144.526 19.6172 144.12 19.3151 143.781 18.9297C143.448 18.5391 143.193 18.0833 143.016 17.5625C142.839 17.0417 142.75 16.4766 142.75 15.8672ZM144.195 15.6875V15.8672C144.195 16.2891 144.245 16.6875 144.344 17.0625C144.443 17.4323 144.591 17.7604 144.789 18.0469C144.992 18.3333 145.245 18.5599 145.547 18.7266C145.849 18.888 146.201 18.9688 146.602 18.9688C146.997 18.9688 147.344 18.888 147.641 18.7266C147.943 18.5599 148.193 18.3333 148.391 18.0469C148.589 17.7604 148.737 17.4323 148.836 17.0625C148.94 16.6875 148.992 16.2891 148.992 15.8672V15.6875C148.992 15.2708 148.94 14.8776 148.836 14.5078C148.737 14.1328 148.586 13.8021 148.383 13.5156C148.185 13.224 147.935 12.9948 147.633 12.8281C147.336 12.6615 146.987 12.5781 146.586 12.5781C146.19 12.5781 145.841 12.6615 145.539 12.8281C145.242 12.9948 144.992 13.224 144.789 13.5156C144.591 13.8021 144.443 14.1328 144.344 14.5078C144.245 14.8776 144.195 15.2708 144.195 15.6875ZM153.703 13.3516V20H152.258V11.5469H153.625L153.703 13.3516ZM153.359 15.4531L152.758 15.4297C152.763 14.8516 152.849 14.3177 153.016 13.8281C153.182 13.3333 153.417 12.9036 153.719 12.5391C154.021 12.1745 154.38 11.8932 154.797 11.6953C155.219 11.4922 155.685 11.3906 156.195 11.3906C156.612 11.3906 156.987 11.4479 157.32 11.5625C157.654 11.6719 157.938 11.849 158.172 12.0938C158.411 12.3385 158.594 12.6562 158.719 13.0469C158.844 13.4323 158.906 13.9036 158.906 14.4609V20H157.453V14.4453C157.453 14.0026 157.388 13.6484 157.258 13.3828C157.128 13.112 156.938 12.9167 156.688 12.7969C156.438 12.6719 156.13 12.6094 155.766 12.6094C155.406 12.6094 155.078 12.6849 154.781 12.8359C154.49 12.987 154.237 13.1953 154.023 13.4609C153.815 13.7266 153.651 14.0312 153.531 14.375C153.417 14.7135 153.359 15.0729 153.359 15.4531Z" fill="#B0B0B0"/>
</svg>
